<?xml version="1.0" encoding="UTF-8"?> <svg xmlns="http://www.w3.org/2000/svg" width="52" height="52" viewBox="0 0 52 52" fill="none"><path d="M17.3333 48.7487C16.4763 48.7487 15.6385 48.4946 14.9259 48.0184C14.2133 47.5422 13.6578 46.8655 13.3299 46.0737C13.0019 45.2819 12.9161 44.4106 13.0833 43.57C13.2505 42.7294 13.6632 41.9573 14.2692 41.3512C14.8752 40.7452 15.6474 40.3325 16.4879 40.1653C17.3285 39.9981 18.1998 40.0839 18.9916 40.4119C19.7834 40.7399 20.4602 41.2953 20.9364 42.0079C21.4125 42.7205 21.6667 43.5583 21.6667 44.4154C21.6667 45.5646 21.2101 46.6668 20.3975 47.4795C19.5848 48.2922 18.4826 48.7487 17.3333 48.7487ZM17.3333 42.2487C16.9048 42.2487 16.4859 42.3758 16.1296 42.6138C15.7733 42.8519 15.4956 43.1903 15.3316 43.5862C15.1676 43.9821 15.1247 44.4178 15.2083 44.8381C15.2919 45.2584 15.4983 45.6444 15.8013 45.9474C16.1043 46.2504 16.4903 46.4568 16.9106 46.5404C17.3309 46.624 17.7666 46.5811 18.1625 46.4171C18.5584 46.2531 18.8968 45.9754 19.1349 45.6191C19.3729 45.2628 19.5 44.8439 19.5 44.4154C19.5 43.8407 19.2717 43.2896 18.8654 42.8833C18.4591 42.477 17.908 42.2487 17.3333 42.2487Z" fill="url(#paint0_linear_8256_99096)"></path><path d="M32.4974 48.7487C31.6403 48.7487 30.8025 48.4946 30.0899 48.0184C29.3773 47.5422 28.8219 46.8655 28.4939 46.0737C28.1659 45.2819 28.0801 44.4106 28.2473 43.57C28.4145 42.7294 28.8272 41.9573 29.4333 41.3512C30.0393 40.7452 30.8114 40.3325 31.652 40.1653C32.4926 39.9981 33.3639 40.0839 34.1557 40.4119C34.9475 40.7399 35.6243 41.2953 36.1004 42.0079C36.5766 42.7205 36.8307 43.5583 36.8307 44.4154C36.8307 45.5646 36.3742 46.6668 35.5615 47.4795C34.7489 48.2922 33.6467 48.7487 32.4974 48.7487ZM32.4974 42.2487C32.0689 42.2487 31.65 42.3758 31.2937 42.6138C30.9374 42.8519 30.6596 43.1903 30.4957 43.5862C30.3317 43.9821 30.2888 44.4178 30.3724 44.8381C30.456 45.2584 30.6623 45.6444 30.9653 45.9474C31.2683 46.2504 31.6544 46.4568 32.0747 46.5404C32.495 46.624 32.9306 46.5811 33.3265 46.4171C33.7225 46.2531 34.0608 45.9754 34.2989 45.6191C34.537 45.2628 34.6641 44.8439 34.6641 44.4154C34.6641 43.8407 34.4358 43.2896 34.0295 42.8833C33.6231 42.477 33.072 42.2487 32.4974 42.2487Z" fill="url(#paint1_linear_8256_99096)"></path><path d="M39.0026 42.2513H13.0026C11.566 42.2513 10.1883 41.6806 9.17244 40.6648C8.15662 39.649 7.58594 38.2712 7.58594 36.8346C7.58594 35.398 8.15662 34.0203 9.17244 33.0045C10.1883 31.9887 11.566 31.418 13.0026 31.418H30.3359C30.6233 31.418 30.8988 31.5321 31.102 31.7353C31.3051 31.9384 31.4193 32.214 31.4193 32.5013C31.4193 32.7886 31.3051 33.0642 31.102 33.2673C30.8988 33.4705 30.6233 33.5846 30.3359 33.5846H13.0026C12.1407 33.5846 11.314 33.927 10.7045 34.5365C10.095 35.146 9.7526 35.9727 9.7526 36.8346C9.7526 37.6966 10.095 38.5232 10.7045 39.1327C11.314 39.7422 12.1407 40.0846 13.0026 40.0846H39.0026C39.2899 40.0846 39.5655 40.1988 39.7686 40.4019C39.9718 40.6051 40.0859 40.8807 40.0859 41.168C40.0859 41.4553 39.9718 41.7308 39.7686 41.934C39.5655 42.1372 39.2899 42.2513 39.0026 42.2513Z" fill="url(#paint2_linear_8256_99096)"></path><path d="M27.0833 28.1667C26.796 28.1667 26.5205 28.0525 26.3173 27.8494C26.1141 27.6462 26 27.3707 26 27.0833V20.5833C26 20.296 26.1141 20.0205 26.3173 19.8173C26.5205 19.6141 26.796 19.5 27.0833 19.5C27.3707 19.5 27.6462 19.6141 27.8494 19.8173C28.0525 20.0205 28.1667 20.296 28.1667 20.5833V27.0833C28.1667 27.3707 28.0525 27.6462 27.8494 27.8494C27.6462 28.0525 27.3707 28.1667 27.0833 28.1667Z" fill="url(#paint3_linear_8256_99096)"></path><path d="M21.6693 27.082C21.382 27.082 21.1064 26.9679 20.9032 26.7647C20.7001 26.5616 20.5859 26.286 20.5859 25.9987V21.6654C20.5859 21.378 20.7001 21.1025 20.9032 20.8993C21.1064 20.6962 21.382 20.582 21.6693 20.582C21.9566 20.582 22.2321 20.6962 22.4353 20.8993C22.6385 21.1025 22.7526 21.378 22.7526 21.6654V25.9987C22.7526 26.286 22.6385 26.5616 22.4353 26.7647C22.2321 26.9679 21.9566 27.082 21.6693 27.082Z" fill="url(#paint4_linear_8256_99096)"></path><path d="M32.4974 27.082C32.2101 27.082 31.9345 26.9679 31.7314 26.7647C31.5282 26.5616 31.4141 26.286 31.4141 25.9987V21.6654C31.4141 21.378 31.5282 21.1025 31.7314 20.8993C31.9345 20.6962 32.2101 20.582 32.4974 20.582C32.7847 20.582 33.0603 20.6962 33.2634 20.8993C33.4666 21.1025 33.5807 21.378 33.5807 21.6654V25.9987C33.5807 26.286 33.4666 26.5616 33.2634 26.7647C33.0603 26.9679 32.7847 27.082 32.4974 27.082Z" fill="url(#paint5_linear_8256_99096)"></path><path d="M35.5307 16.2487H16.2474C15.9601 16.2487 15.6845 16.1346 15.4814 15.9314C15.2782 15.7282 15.1641 15.4527 15.1641 15.1654C15.1641 14.878 15.2782 14.6025 15.4814 14.3993C15.6845 14.1962 15.9601 14.082 16.2474 14.082H35.5307C35.818 14.082 36.0936 14.1962 36.2968 14.3993C36.4999 14.6025 36.6141 14.878 36.6141 15.1654C36.6141 15.4527 36.4999 15.7282 36.2968 15.9314C36.0936 16.1346 35.818 16.2487 35.5307 16.2487Z" fill="url(#paint6_linear_8256_99096)"></path><path d="M37.5808 33.582H16.9C16.162 33.5797 15.4466 33.3272 14.8707 32.8658C14.2948 32.4044 13.8923 31.7613 13.7291 31.0416L9.07292 10.5959C9.02129 10.3546 8.88801 10.1386 8.69558 9.98428C8.50314 9.82994 8.26334 9.74673 8.01667 9.7487H4.33333C4.04602 9.7487 3.77047 9.63456 3.5673 9.4314C3.36414 9.22823 3.25 8.95268 3.25 8.66536C3.25 8.37805 3.36414 8.1025 3.5673 7.89933C3.77047 7.69617 4.04602 7.58203 4.33333 7.58203H8.01667C8.75464 7.58434 9.47003 7.83683 10.046 8.29825C10.6219 8.75967 11.0244 9.40275 11.1876 10.1224L15.8459 30.5682C15.8975 30.8091 16.0304 31.0248 16.2224 31.1791C16.4144 31.3334 16.6537 31.4168 16.9 31.4154H37.5808C37.7899 31.4172 37.9948 31.3574 38.1701 31.2436C38.3454 31.1297 38.4833 30.9668 38.5667 30.7751L44.9302 16.2487H43.55C43.2627 16.2487 42.9871 16.1346 42.784 15.9314C42.5808 15.7282 42.4667 15.4527 42.4667 15.1654C42.4667 14.878 42.5808 14.6025 42.784 14.3993C42.9871 14.1962 43.2627 14.082 43.55 14.082H44.9258C45.2859 14.0815 45.6404 14.1707 45.9573 14.3415C46.2742 14.5124 46.5435 14.7595 46.7409 15.0606C46.9384 15.3617 47.0576 15.7072 47.088 16.066C47.1184 16.4247 47.0588 16.7854 46.9148 17.1154L40.5557 31.632C40.3061 32.2133 39.8909 32.7082 39.3619 33.0549C38.8328 33.4017 38.2134 33.585 37.5808 33.582Z" fill="url(#paint7_linear_8256_99096)"></path><path d="M39.5401 20.2513C39.3978 20.2517 39.2568 20.2238 39.1253 20.1693C38.9939 20.1149 38.8745 20.0348 38.7742 19.9339L31.8798 13.0406C30.8639 12.0248 30.2931 10.647 30.293 9.21035C30.2929 7.77367 30.8635 6.3958 31.8793 5.37984C32.8951 4.36389 34.2729 3.79307 35.7096 3.79297C37.1463 3.79287 38.5241 4.36349 39.5401 5.3793C40.556 4.36349 41.9339 3.79287 43.3706 3.79297C44.082 3.79302 44.7864 3.93318 45.4436 4.20546C46.1008 4.47774 46.6979 4.87679 47.2009 5.37984C47.7039 5.88289 48.1028 6.48009 48.375 7.13732C48.6472 7.79456 48.7873 8.49898 48.7872 9.21035C48.7872 9.92172 48.647 10.6261 48.3747 11.2833C48.1024 11.9405 47.7034 12.5377 47.2003 13.0406L40.306 19.935C40.2056 20.0357 40.0862 20.1155 39.9547 20.1698C39.8233 20.2241 39.6823 20.2518 39.5401 20.2513ZM35.7105 5.95997C35.0677 5.95989 34.4394 6.15042 33.9049 6.50746C33.3704 6.8645 32.9537 7.37202 32.7077 7.96584C32.4616 8.55966 32.3972 9.21311 32.5225 9.84355C32.6478 10.474 32.9572 11.0531 33.4117 11.5077L39.5401 17.6361L45.6685 11.5088C45.9704 11.207 46.2099 10.8487 46.3733 10.4543C46.5367 10.0599 46.6208 9.63723 46.6209 9.21035C46.6209 8.78347 46.5369 8.36075 46.3736 7.96635C46.2103 7.57194 45.9709 7.21356 45.6691 6.91167C45.3672 6.60979 45.0089 6.3703 44.6145 6.2069C44.2202 6.04349 43.7975 5.95936 43.3706 5.95931C42.9437 5.95926 42.521 6.04329 42.1266 6.2066C41.7322 6.36992 41.3738 6.60932 41.0719 6.91113L40.3071 7.67813C40.0996 7.87376 39.8252 7.98272 39.5401 7.98272C39.2549 7.98272 38.9806 7.87376 38.7731 7.67813L38.0072 6.91113C37.706 6.60897 37.348 6.36937 36.9539 6.20613C36.5597 6.04289 36.1371 5.95923 35.7105 5.95997Z" fill="#FF6A39"></path><defs><linearGradient id="paint0_linear_8256_99096" x1="13" y1="46.2367" x2="21.8817" y2="45.6015" gradientUnits="userSpaceOnUse"><stop stop-color="#35ACF0"></stop><stop offset="1" stop-color="#74CAFC"></stop></linearGradient><linearGradient id="paint1_linear_8256_99096" x1="28.1641" y1="46.2367" x2="37.0458" y2="45.6015" gradientUnits="userSpaceOnUse"><stop stop-color="#35ACF0"></stop><stop offset="1" stop-color="#74CAFC"></stop></linearGradient><linearGradient id="paint2_linear_8256_99096" x1="7.58594" y1="39.1113" x2="39.5897" y2="32.2449" gradientUnits="userSpaceOnUse"><stop stop-color="#35ACF0"></stop><stop offset="1" stop-color="#74CAFC"></stop></linearGradient><linearGradient id="paint3_linear_8256_99096" x1="26" y1="25.6546" x2="28.2311" y2="25.6147" gradientUnits="userSpaceOnUse"><stop stop-color="#35ACF0"></stop><stop offset="1" stop-color="#74CAFC"></stop></linearGradient><linearGradient id="paint4_linear_8256_99096" x1="20.5859" y1="25.198" x2="22.8165" y2="25.1448" gradientUnits="userSpaceOnUse"><stop stop-color="#35ACF0"></stop><stop offset="1" stop-color="#74CAFC"></stop></linearGradient><linearGradient id="paint5_linear_8256_99096" x1="31.4141" y1="25.198" x2="33.6446" y2="25.1448" gradientUnits="userSpaceOnUse"><stop stop-color="#35ACF0"></stop><stop offset="1" stop-color="#74CAFC"></stop></linearGradient><linearGradient id="paint6_linear_8256_99096" x1="15.1641" y1="15.6207" x2="29.8813" y2="5.20067" gradientUnits="userSpaceOnUse"><stop stop-color="#35ACF0"></stop><stop offset="1" stop-color="#74CAFC"></stop></linearGradient><linearGradient id="paint7_linear_8256_99096" x1="3.25" y1="26.046" x2="47.7662" y2="20.6771" gradientUnits="userSpaceOnUse"><stop stop-color="#35ACF0"></stop><stop offset="1" stop-color="#74CAFC"></stop></linearGradient></defs></svg> 