<?xml version="1.0" encoding="UTF-8"?> <svg xmlns="http://www.w3.org/2000/svg" width="64" height="64" viewBox="0 0 64 64" fill="none"><path d="M21.3333 59.9994C20.2785 59.9994 19.2474 59.6866 18.3703 59.1006C17.4932 58.5146 16.8096 57.6816 16.406 56.7071C16.0023 55.7325 15.8967 54.6602 16.1025 53.6256C16.3083 52.5911 16.8162 51.6407 17.5621 50.8949C18.308 50.149 19.2583 49.641 20.2929 49.4352C21.3274 49.2295 22.3998 49.3351 23.3743 49.7387C24.3489 50.1424 25.1818 50.826 25.7678 51.7031C26.3539 52.5801 26.6667 53.6113 26.6667 54.6661C26.6667 56.0806 26.1048 57.4371 25.1046 58.4373C24.1044 59.4375 22.7478 59.9994 21.3333 59.9994ZM21.3333 51.9994C20.8059 51.9994 20.2903 52.1558 19.8518 52.4488C19.4133 52.7419 19.0715 53.1583 18.8697 53.6456C18.6678 54.1329 18.615 54.6691 18.7179 55.1863C18.8208 55.7036 19.0748 56.1788 19.4477 56.5517C19.8207 56.9247 20.2958 57.1786 20.8131 57.2815C21.3304 57.3844 21.8666 57.3316 22.3538 57.1298C22.8411 56.9279 23.2576 56.5862 23.5506 56.1476C23.8436 55.7091 24 55.1935 24 54.6661C24 53.9589 23.7191 53.2806 23.219 52.7805C22.7189 52.2804 22.0406 51.9994 21.3333 51.9994Z" fill="#33A6E8"></path><path d="M39.9974 59.9994C38.9426 59.9994 37.9114 59.6866 37.0344 59.1006C36.1573 58.5146 35.4737 57.6816 35.07 56.7071C34.6664 55.7325 34.5608 54.6602 34.7665 53.6256C34.9723 52.5911 35.4803 51.6407 36.2262 50.8949C36.972 50.149 37.9224 49.641 38.9569 49.4352C39.9915 49.2295 41.0638 49.3351 42.0384 49.7387C43.0129 50.1424 43.8459 50.826 44.4319 51.7031C45.0179 52.5801 45.3307 53.6113 45.3307 54.6661C45.3307 56.0806 44.7688 57.4371 43.7686 58.4373C42.7684 59.4375 41.4119 59.9994 39.9974 59.9994ZM39.9974 51.9994C39.47 51.9994 38.9544 52.1558 38.5159 52.4488C38.0773 52.7419 37.7356 53.1583 37.5337 53.6456C37.3319 54.1329 37.2791 54.6691 37.382 55.1863C37.4849 55.7036 37.7388 56.1788 38.1118 56.5517C38.4847 56.9247 38.9599 57.1786 39.4772 57.2815C39.9944 57.3844 40.5306 57.3316 41.0179 57.1298C41.5052 56.9279 41.9216 56.5862 42.2147 56.1476C42.5077 55.7091 42.6641 55.1935 42.6641 54.6661C42.6641 53.9589 42.3831 53.2806 41.883 52.7805C41.3829 52.2804 40.7046 51.9994 39.9974 51.9994Z" fill="#33A6E8"></path><path d="M48.0026 52.0006H16.0026C14.2345 52.0006 12.5388 51.2982 11.2886 50.0479C10.0383 48.7977 9.33594 47.102 9.33594 45.3339C9.33594 43.5658 10.0383 41.8701 11.2886 40.6199C12.5388 39.3696 14.2345 38.6672 16.0026 38.6672H37.3359C37.6896 38.6672 38.0287 38.8077 38.2787 39.0578C38.5288 39.3078 38.6693 39.6469 38.6693 40.0006C38.6693 40.3542 38.5288 40.6933 38.2787 40.9434C38.0287 41.1934 37.6896 41.3339 37.3359 41.3339H16.0026C14.9417 41.3339 13.9243 41.7553 13.1742 42.5055C12.424 43.2556 12.0026 44.273 12.0026 45.3339C12.0026 46.3948 12.424 47.4122 13.1742 48.1623C13.9243 48.9125 14.9417 49.3339 16.0026 49.3339H48.0026C48.3562 49.3339 48.6954 49.4744 48.9454 49.7244C49.1955 49.9745 49.3359 50.3136 49.3359 50.6672C49.3359 51.0209 49.1955 51.36 48.9454 51.61C48.6954 51.8601 48.3562 52.0006 48.0026 52.0006Z" fill="#33A6E8"></path><path d="M33.3333 34.6667C32.9797 34.6667 32.6406 34.5262 32.3905 34.2761C32.1405 34.0261 32 33.687 32 33.3333V25.3333C32 24.9797 32.1405 24.6406 32.3905 24.3905C32.6406 24.1405 32.9797 24 33.3333 24C33.687 24 34.0261 24.1405 34.2761 24.3905C34.5262 24.6406 34.6667 24.9797 34.6667 25.3333V33.3333C34.6667 33.687 34.5262 34.0261 34.2761 34.2761C34.0261 34.5262 33.687 34.6667 33.3333 34.6667Z" fill="#33A6E8"></path><path d="M26.6693 33.3328C26.3156 33.3328 25.9765 33.1923 25.7265 32.9422C25.4764 32.6922 25.3359 32.3531 25.3359 31.9994V26.6661C25.3359 26.3125 25.4764 25.9733 25.7265 25.7233C25.9765 25.4732 26.3156 25.3328 26.6693 25.3328C27.0229 25.3328 27.362 25.4732 27.6121 25.7233C27.8621 25.9733 28.0026 26.3125 28.0026 26.6661V31.9994C28.0026 32.3531 27.8621 32.6922 27.6121 32.9422C27.362 33.1923 27.0229 33.3328 26.6693 33.3328Z" fill="#33A6E8"></path><path d="M39.9974 33.3328C39.6438 33.3328 39.3046 33.1923 39.0546 32.9422C38.8045 32.6922 38.6641 32.3531 38.6641 31.9994V26.6661C38.6641 26.3125 38.8045 25.9733 39.0546 25.7233C39.3046 25.4732 39.6438 25.3328 39.9974 25.3328C40.351 25.3328 40.6902 25.4732 40.9402 25.7233C41.1903 25.9733 41.3307 26.3125 41.3307 26.6661V31.9994C41.3307 32.3531 41.1903 32.6922 40.9402 32.9422C40.6902 33.1923 40.351 33.3328 39.9974 33.3328Z" fill="#33A6E8"></path><path d="M43.7307 19.9994H19.9974C19.6438 19.9994 19.3046 19.859 19.0546 19.6089C18.8045 19.3589 18.6641 19.0197 18.6641 18.6661C18.6641 18.3125 18.8045 17.9733 19.0546 17.7233C19.3046 17.4732 19.6438 17.3328 19.9974 17.3328H43.7307C44.0843 17.3328 44.4235 17.4732 44.6735 17.7233C44.9236 17.9733 45.0641 18.3125 45.0641 18.6661C45.0641 19.0197 44.9236 19.3589 44.6735 19.6089C44.4235 19.859 44.0843 19.9994 43.7307 19.9994Z" fill="#33A6E8"></path><path d="M46.2533 41.3328H20.8C19.8917 41.3299 19.0113 41.0192 18.3024 40.4513C17.5936 39.8834 17.0982 39.0919 16.8973 38.2061L11.1667 13.0421C11.1031 12.7452 10.9391 12.4793 10.7022 12.2894C10.4654 12.0994 10.1703 11.997 9.86667 11.9994H5.33333C4.97971 11.9994 4.64057 11.859 4.39052 11.6089C4.14048 11.3589 4 11.0197 4 10.6661C4 10.3125 4.14048 9.97334 4.39052 9.72329C4.64057 9.47324 4.97971 9.33276 5.33333 9.33276H9.86667C10.7749 9.33561 11.6554 9.64636 12.3643 10.2143C13.0731 10.7822 13.5684 11.5736 13.7693 12.4594L19.5027 37.6234C19.5661 37.9199 19.7298 38.1854 19.9661 38.3753C20.2023 38.5652 20.4969 38.6679 20.8 38.6661H46.2533C46.5106 38.6683 46.7628 38.5948 46.9786 38.4547C47.1943 38.3146 47.3641 38.114 47.4667 37.8781L55.2987 19.9994H53.6C53.2464 19.9994 52.9072 19.859 52.6572 19.6089C52.4071 19.3589 52.2667 19.0197 52.2667 18.6661C52.2667 18.3125 52.4071 17.9733 52.6572 17.7233C52.9072 17.4732 53.2464 17.3328 53.6 17.3328H55.2933C55.7365 17.3321 56.1727 17.4419 56.5628 17.6522C56.9528 17.8625 57.2843 18.1666 57.5273 18.5372C57.7703 18.9077 57.9171 19.333 57.9545 19.7745C57.9918 20.2161 57.9186 20.66 57.7413 21.0661L49.9147 38.9328C49.6075 39.6481 49.0965 40.2572 48.4454 40.684C47.7942 41.1109 47.0319 41.3365 46.2533 41.3328Z" fill="#33A6E8"></path><path d="M48.6662 24.9236C48.4911 24.9241 48.3176 24.8898 48.1557 24.8228C47.9939 24.7557 47.847 24.6572 47.7236 24.533L39.2382 16.049C37.9878 14.7987 37.2853 13.103 37.2852 11.3348C37.285 9.56656 37.9873 7.87072 39.2376 6.62031C40.4878 5.3699 42.1835 4.66736 43.9518 4.66724C45.72 4.66711 47.4158 5.36941 48.6662 6.61964C49.9166 5.36941 51.6125 4.66711 53.3807 4.66724C54.2562 4.6673 55.1232 4.83981 55.932 5.17492C56.7409 5.51003 57.4758 6.00117 58.0949 6.62031C58.7139 7.23945 59.205 7.97446 59.54 8.78337C59.875 9.59228 60.0474 10.4592 60.0473 11.3348C60.0472 12.2103 59.8747 13.0773 59.5396 13.8861C59.2045 14.695 58.7134 15.4299 58.0942 16.049L49.6089 24.5343C49.4853 24.6583 49.3384 24.7566 49.1766 24.8234C49.0147 24.8902 48.8413 24.9243 48.6662 24.9236ZM43.9529 7.33431C43.1618 7.33422 42.3884 7.56871 41.7306 8.00815C41.0727 8.44758 40.56 9.07222 40.2571 9.80308C39.9543 10.5339 39.8749 11.3382 40.0292 12.1141C40.1834 12.89 40.5642 13.6028 41.1236 14.1623L48.6662 21.705L56.2089 14.1636C56.5805 13.7922 56.8752 13.3512 57.0763 12.8658C57.2774 12.3804 57.381 11.8602 57.381 11.3348C57.3811 10.8094 57.2777 10.2891 57.0767 9.8037C56.8757 9.31828 56.581 8.8772 56.2096 8.50564C55.8381 8.13409 55.3971 7.83934 54.9117 7.63822C54.4263 7.43711 53.9061 7.33356 53.3807 7.3335C52.8553 7.33344 52.335 7.43686 51.8496 7.63786C51.3642 7.83887 50.9231 8.13351 50.5516 8.50498L49.6102 9.44898C49.3549 9.68975 49.0172 9.82386 48.6662 9.82386C48.3153 9.82386 47.9776 9.68975 47.7222 9.44898L46.7796 8.50498C46.4089 8.13309 45.9683 7.8382 45.4832 7.63728C44.998 7.43637 44.478 7.3334 43.9529 7.33431Z" fill="#FF3834"></path></svg> 