<?xml version="1.0" encoding="UTF-8"?> <svg xmlns="http://www.w3.org/2000/svg" width="64" height="64" viewBox="0 0 64 64" fill="none"><g clip-path="url(#clip0_8469_97259)"><path d="M62.1657 12.5506C61.3551 11.5925 60.2201 11.0073 58.9694 10.9028L14.9178 7.22456C13.6669 7.1201 12.4508 7.50899 11.4925 8.31939C10.5382 9.12661 9.95384 10.2559 9.84608 11.5005L8.95981 19.8154H5.42096C2.83033 19.8154 0.722656 21.923 0.722656 24.5137V52.0892C0.722656 54.6798 2.83033 56.7875 5.42096 56.7875H49.6261C52.2168 56.7875 54.3245 54.6798 54.3245 52.0892V47.6159L55.8931 47.7469C56.0254 47.7579 56.157 47.7634 56.2875 47.7634C58.7027 47.7634 60.7616 45.9052 60.9661 43.4558L63.2607 15.976C63.3651 14.7252 62.9762 13.5088 62.1657 12.5506ZM5.42096 22.2589H49.6261C50.8693 22.2589 51.881 23.2704 51.881 24.5137V27.0263H3.16619V24.5137C3.16619 23.2704 4.17769 22.2589 5.42096 22.2589ZM3.16619 29.4699H51.881V34.5389H3.16619V29.4699ZM49.6261 54.3439H5.42096C4.17769 54.3439 3.16619 53.3324 3.16619 52.0892V36.9824H51.881V52.0892C51.881 53.3324 50.8693 54.3439 49.6261 54.3439ZM60.8256 15.7725L58.531 43.2524C58.4275 44.4914 57.3352 45.4156 56.0964 45.3118L54.3245 45.1638V24.5137C54.3245 21.923 52.2168 19.8154 49.6261 19.8154H11.4173L12.2773 11.7468C12.2782 11.7375 12.2791 11.7284 12.2798 11.719C12.3833 10.48 13.4751 9.55581 14.7144 9.65966L58.7662 13.3379C59.3665 13.388 59.9113 13.6689 60.3001 14.1288C60.689 14.5886 60.8757 15.1723 60.8256 15.7725Z" fill="#33A6E8"></path><path d="M46.7714 40.6139H35.0128C34.338 40.6139 33.791 41.1609 33.791 41.8357V49.507C33.791 50.1818 34.338 50.7288 35.0128 50.7288H46.7714C47.4461 50.7288 47.9931 50.1818 47.9931 49.507V41.8357C47.9931 41.1609 47.4461 40.6139 46.7714 40.6139ZM45.5496 48.2853H36.2346V43.0574H45.5496V48.2853Z" fill="#8ACD4B"></path></g><defs><clipPath id="clip0_8469_97259"><rect width="62.5547" height="62.5547" fill="white" transform="translate(0.722656 0.722656)"></rect></clipPath></defs></svg> 