<?xml version="1.0" encoding="UTF-8"?> <svg xmlns="http://www.w3.org/2000/svg" width="52" height="52" viewBox="0 0 52 52" fill="none"><g clip-path="url(#clip0_8256_99113)"><path d="M51.0759 9.83188C50.4021 9.03543 49.4586 8.54895 48.4189 8.46212L11.8 5.40449C10.7602 5.31765 9.74925 5.64092 8.9527 6.31458C8.1594 6.98561 7.67363 7.92434 7.58405 8.95896L6.84732 15.8709H3.90557C1.75205 15.8709 0 17.6229 0 19.7764V42.6992C0 44.8527 1.75205 46.6048 3.90557 46.6048H40.6521C42.8057 46.6048 44.5577 44.8527 44.5577 42.6992V38.9807L45.8617 39.0896C45.9717 39.0987 46.0811 39.1033 46.1895 39.1033C48.1972 39.1033 49.9087 37.5586 50.0788 35.5225L51.9862 12.6793C52.0729 11.6396 51.7497 10.6284 51.0759 9.83188ZM3.90557 17.9021H40.6521C41.6856 17.9021 42.5265 18.7429 42.5265 19.7764V21.8652H2.03124V19.7764C2.03124 18.7429 2.87208 17.9021 3.90557 17.9021ZM2.03124 23.8964H42.5265V28.1101H2.03124V23.8964ZM40.6521 44.5735H3.90557C2.87208 44.5735 2.03124 43.7327 2.03124 42.6992V30.1414H42.5265V42.6992C42.5265 43.7327 41.6856 44.5735 40.6521 44.5735ZM49.962 12.5102L48.0545 35.3534C47.9685 36.3834 47.0604 37.1517 46.0307 37.0654L44.5577 36.9424V19.7764C44.5577 17.6229 42.8057 15.8709 40.6521 15.8709H8.89014L9.60503 9.16371C9.60585 9.15599 9.60656 9.14837 9.60717 9.14055C9.69319 8.11061 10.6007 7.34239 11.631 7.42872L48.25 10.4863C48.749 10.528 49.2019 10.7615 49.5251 11.1438C49.8484 11.526 50.0036 12.0112 49.962 12.5102Z" fill="url(#paint0_linear_8256_99113)"></path><path d="M38.2785 33.1602H28.5039C27.943 33.1602 27.4883 33.6149 27.4883 34.1758V40.5528C27.4883 41.1137 27.943 41.5684 28.5039 41.5684H38.2785C38.8394 41.5684 39.2941 41.1137 39.2941 40.5528V34.1758C39.2941 33.6149 38.8394 33.1602 38.2785 33.1602ZM37.2629 39.5372H29.5195V35.1914H37.2629V39.5372Z" fill="#8ACD4B"></path></g><defs><linearGradient id="paint0_linear_8256_99113" x1="3.93393e-07" y1="34.6589" x2="53.1305" y2="29.8647" gradientUnits="userSpaceOnUse"><stop stop-color="#35ACF0"></stop><stop offset="1" stop-color="#74CAFC"></stop></linearGradient><clipPath id="clip0_8256_99113"><rect width="52" height="52" fill="white"></rect></clipPath></defs></svg> 