<?xml version="1.0" encoding="UTF-8"?> <svg xmlns="http://www.w3.org/2000/svg" width="52" height="52" viewBox="0 0 52 52" fill="none"><path d="M49.4 22.1008H40.9188C41.3535 21.6278 41.5963 21.0098 41.6 20.3674V3.90078C41.6 3.21122 41.3261 2.5499 40.8385 2.0623C40.3509 1.57471 39.6896 1.30078 39 1.30078L22.5333 1.30078C21.8712 1.30078 21.2342 1.55471 20.7541 2.01058L12.7703 7.61791C12.3224 7.82623 11.943 8.15785 11.6767 8.57396C11.4104 8.99006 11.2682 9.47343 11.2667 9.96745V22.1008C10.6045 22.1008 9.96753 22.3547 9.4874 22.8106L1.50367 28.4179C1.05571 28.6262 0.676369 28.9578 0.410067 29.374C0.143766 29.7901 0.00152479 30.2734 0 30.7674L0 48.1008C0 48.7903 0.273928 49.4517 0.761522 49.9393C1.24912 50.4269 1.91044 50.7008 2.6 50.7008H20.8C21.4417 50.6985 22.0596 50.4576 22.5333 50.0248C23.0074 50.4581 23.6253 50.6982 24.2667 50.7008H42.4667C43.1695 50.7008 43.8429 50.4139 44.33 49.9069L51.2269 43.01C51.7209 42.5246 52 41.8608 52 41.1674V24.7008C51.9966 24.0123 51.7216 23.3529 51.2347 22.8661C50.7478 22.3792 50.0885 22.1042 49.4 22.1008ZM43.6228 28.4508C43.2649 28.2672 42.8689 28.1701 42.4667 28.1674H34.8695L39.2028 23.8341H48.8991L43.6228 28.4508ZM20.8 28.1674H13.8667C13.6368 28.1674 13.4164 28.0761 13.2538 27.9136C13.0913 27.7511 13 27.5306 13 27.3008V9.96745C13 9.73759 13.0913 9.51715 13.2538 9.35462C13.4164 9.19209 13.6368 9.10078 13.8667 9.10078H32.0667C32.2965 9.10078 32.517 9.19209 32.6795 9.35462C32.842 9.51715 32.9333 9.73759 32.9333 9.96745V27.3008C32.9341 27.5276 32.8453 27.7456 32.6863 27.9074L32.669 27.9248C32.5076 28.0811 32.2914 28.1682 32.0667 28.1674H20.8ZM34.4301 8.89798L39.8667 4.14085V20.3674C39.8661 20.4808 39.8427 20.5929 39.7981 20.6971C39.7534 20.8013 39.6883 20.8955 39.6067 20.9741L34.6667 25.9219V9.96745C34.6656 9.59809 34.5849 9.23331 34.4301 8.89798ZM33.2228 7.65085C32.8649 7.46716 32.4689 7.37009 32.0667 7.36745H25.9263L31.4973 3.03411H38.4991L33.2228 7.65085ZM21.8097 3.38771C21.8535 3.3569 21.8944 3.32209 21.9319 3.28371C22.0105 3.20424 22.1042 3.14123 22.2075 3.09838C22.3107 3.05552 22.4215 3.03368 22.5333 3.03411H28.6737L23.1027 7.36745H16.1434L21.8097 3.38771ZM10.543 24.1877C10.5869 24.1569 10.6278 24.1221 10.6652 24.0837C10.7438 24.0042 10.8375 23.9412 10.9408 23.8984C11.0441 23.8555 11.1549 23.8337 11.2667 23.8341V27.3008C11.2693 27.5963 11.3239 27.8901 11.4261 28.1674H4.87673L10.543 24.1877ZM2.6 48.9674C2.37015 48.9674 2.14971 48.8761 1.98717 48.7136C1.82464 48.5511 1.73333 48.3306 1.73333 48.1008V30.7674C1.73333 30.5376 1.82464 30.3172 1.98717 30.1546C2.14971 29.9921 2.37015 29.9008 2.6 29.9008H20.8C21.0299 29.9008 21.2503 29.9921 21.4128 30.1546C21.5754 30.3172 21.6667 30.5376 21.6667 30.7674V48.1008C21.6666 48.3277 21.5776 48.5455 21.4188 48.7075L21.4032 48.7222C21.242 48.8798 21.0254 48.9678 20.8 48.9674H2.6ZM24.2667 48.9674C24.0368 48.9674 23.8164 48.8761 23.6538 48.7136C23.4913 48.5511 23.4 48.3306 23.4 48.1008V30.7674C23.4 30.5376 23.4913 30.3172 23.6538 30.1546C23.8164 29.9921 24.0368 29.9008 24.2667 29.9008H42.4667C42.6965 29.9008 42.917 29.9921 43.0795 30.1546C43.242 30.3172 43.3333 30.5376 43.3333 30.7674V48.1008C43.3318 48.3222 43.2456 48.5346 43.0924 48.6945L43.0733 48.7075L43.0612 48.7213C42.902 48.8766 42.6891 48.9647 42.4667 48.9674H24.2667ZM50.0067 41.7741L45.0667 46.7141V30.7674C45.0656 30.3981 44.9849 30.0333 44.8301 29.698L50.2667 24.9408V41.1674C50.2661 41.2808 50.2427 41.3929 50.1981 41.4971C50.1534 41.6013 50.0883 41.6955 50.0067 41.7741Z" fill="url(#paint0_linear_8256_99124)"></path><path d="M19.9315 21.2344H16.4648C16.0051 21.2344 15.5643 21.417 15.2392 21.7421C14.9141 22.0671 14.7315 22.508 14.7315 22.9677V24.701C14.7315 25.1608 14.9141 25.6016 15.2392 25.9267C15.5643 26.2518 16.0051 26.4344 16.4648 26.4344H19.9315C20.3912 26.4344 20.8321 26.2518 21.1572 25.9267C21.4822 25.6016 21.6648 25.1608 21.6648 24.701V22.9677C21.6648 22.508 21.4822 22.0671 21.1572 21.7421C20.8321 21.417 20.3912 21.2344 19.9315 21.2344ZM16.4648 24.701V22.9677H19.9315V24.701H16.4648ZM30.3315 21.2344H27.7315C27.5017 21.2344 27.2812 21.3257 27.1187 21.4882C26.9562 21.6507 26.8648 21.8712 26.8648 22.101C26.8648 22.3309 26.9562 22.5513 27.1187 22.7139C27.2812 22.8764 27.5017 22.9677 27.7315 22.9677H30.3315C30.5614 22.9677 30.7818 22.8764 30.9443 22.7139C31.1069 22.5513 31.1982 22.3309 31.1982 22.101C31.1982 21.8712 31.1069 21.6507 30.9443 21.4882C30.7818 21.3257 30.5614 21.2344 30.3315 21.2344ZM30.3315 24.701H27.7315C27.5017 24.701 27.2812 24.7924 27.1187 24.9549C26.9562 25.1174 26.8648 25.3379 26.8648 25.5677C26.8648 25.7976 26.9562 26.018 27.1187 26.1805C27.2812 26.3431 27.5017 26.4344 27.7315 26.4344H30.3315C30.5614 26.4344 30.7818 26.3431 30.9443 26.1805C31.1069 26.018 31.1982 25.7976 31.1982 25.5677C31.1982 25.3379 31.1069 25.1174 30.9443 24.9549C30.7818 24.7924 30.5614 24.701 30.3315 24.701ZM8.66484 42.0344H5.19818C4.73847 42.0344 4.29759 42.217 3.97253 42.5421C3.64746 42.8671 3.46484 43.308 3.46484 43.7677V45.501C3.46484 45.9608 3.64746 46.4016 3.97253 46.7267C4.29759 47.0518 4.73847 47.2344 5.19818 47.2344H8.66484C9.12455 47.2344 9.56543 47.0518 9.89049 46.7267C10.2156 46.4016 10.3982 45.9608 10.3982 45.501V43.7677C10.3982 43.308 10.2156 42.8671 9.89049 42.5421C9.56543 42.217 9.12455 42.0344 8.66484 42.0344ZM5.19818 45.501V43.7677H8.66484V45.501H5.19818ZM19.0648 42.0344H16.4648C16.235 42.0344 16.0145 42.1257 15.852 42.2882C15.6895 42.4507 15.5982 42.6712 15.5982 42.901C15.5982 43.1309 15.6895 43.3513 15.852 43.5139C16.0145 43.6764 16.235 43.7677 16.4648 43.7677H19.0648C19.2947 43.7677 19.5151 43.6764 19.6777 43.5139C19.8402 43.3513 19.9315 43.1309 19.9315 42.901C19.9315 42.6712 19.8402 42.4507 19.6777 42.2882C19.5151 42.1257 19.2947 42.0344 19.0648 42.0344ZM19.0648 45.501H16.4648C16.235 45.501 16.0145 45.5924 15.852 45.7549C15.6895 45.9174 15.5982 46.1379 15.5982 46.3677C15.5982 46.5976 15.6895 46.818 15.852 46.9805C16.0145 47.1431 16.235 47.2344 16.4648 47.2344H19.0648C19.2947 47.2344 19.5151 47.1431 19.6777 46.9805C19.8402 46.818 19.9315 46.5976 19.9315 46.3677C19.9315 46.1379 19.8402 45.9174 19.6777 45.7549C19.5151 45.5924 19.2947 45.501 19.0648 45.501ZM30.3315 42.0344H26.8648C26.4051 42.0344 25.9643 42.217 25.6392 42.5421C25.3141 42.8671 25.1315 43.308 25.1315 43.7677V45.501C25.1315 45.9608 25.3141 46.4016 25.6392 46.7267C25.9643 47.0518 26.4051 47.2344 26.8648 47.2344H30.3315C30.7912 47.2344 31.2321 47.0518 31.5572 46.7267C31.8822 46.4016 32.0648 45.9608 32.0648 45.501V43.7677C32.0648 43.308 31.8822 42.8671 31.5572 42.5421C31.2321 42.217 30.7912 42.0344 30.3315 42.0344ZM26.8648 45.501V43.7677H30.3315V45.501H26.8648ZM40.7315 42.0344H38.1315C37.9017 42.0344 37.6812 42.1257 37.5187 42.2882C37.3561 42.4507 37.2648 42.6712 37.2648 42.901C37.2648 43.1309 37.3561 43.3513 37.5187 43.5139C37.6812 43.6764 37.9017 43.7677 38.1315 43.7677H40.7315C40.9614 43.7677 41.1818 43.6764 41.3443 43.5139C41.5069 43.3513 41.5982 43.1309 41.5982 42.901C41.5982 42.6712 41.5069 42.4507 41.3443 42.2882C41.1818 42.1257 40.9614 42.0344 40.7315 42.0344ZM40.7315 45.501H38.1315C37.9017 45.501 37.6812 45.5924 37.5187 45.7549C37.3561 45.9174 37.2648 46.1379 37.2648 46.3677C37.2648 46.5976 37.3561 46.818 37.5187 46.9805C37.6812 47.1431 37.9017 47.2344 38.1315 47.2344H40.7315C40.9614 47.2344 41.1818 47.1431 41.3443 46.9805C41.5069 46.818 41.5982 46.5976 41.5982 46.3677C41.5982 46.1379 41.5069 45.9174 41.3443 45.7549C41.1818 45.5924 40.9614 45.501 40.7315 45.501Z" fill="#FCB07E"></path><defs><linearGradient id="paint0_linear_8256_99124" x1="3.93393e-07" y1="36.3822" x2="53.2612" y2="32.3727" gradientUnits="userSpaceOnUse"><stop stop-color="#35ACF0"></stop><stop offset="1" stop-color="#74CAFC"></stop></linearGradient></defs></svg> 