<?xml version="1.0" encoding="UTF-8"?> <svg xmlns="http://www.w3.org/2000/svg" width="64" height="64" viewBox="0 0 64 64" fill="none"><g clip-path="url(#clip0_8469_97274)"><path d="M61.3766 27.1037H50.7292C51.2749 26.5099 51.5798 25.7341 51.5844 24.9277V4.25527C51.5844 3.38959 51.2405 2.55936 50.6283 1.94723C50.0162 1.3351 49.186 0.991211 48.3203 0.991211L27.6479 0.991211C26.8167 0.991211 26.017 1.31 25.4142 1.8823L15.3914 8.92179C14.829 9.18331 14.3528 9.59964 14.0184 10.122C13.6841 10.6444 13.5056 11.2512 13.5036 11.8714V27.1037C12.6724 27.1037 11.8727 27.4225 11.2699 27.9948L1.24709 35.0343C0.68472 35.2958 0.208494 35.7121 -0.125823 36.2345C-0.46014 36.7569 -0.638711 37.3637 -0.640625 37.9839L-0.640625 59.7443C-0.640625 60.61 -0.296734 61.4402 0.315397 62.0524C0.927527 62.6645 1.75775 63.0084 2.62344 63.0084H25.4719C26.2774 63.0056 27.0531 62.703 27.6479 62.1597C28.2431 62.7038 29.0188 63.0051 29.824 63.0084H52.6724C53.5548 63.0084 54.4002 62.6483 55.0116 62.0118L63.6701 53.3533C64.2903 52.744 64.6406 51.9106 64.6406 51.0402V30.3678C64.6363 29.5034 64.2911 28.6757 63.6799 28.0645C63.0687 27.4533 62.2409 27.108 61.3766 27.1037ZM54.1238 35.0756C53.6745 34.845 53.1774 34.7232 52.6724 34.7199H43.1348L48.5749 29.2798H60.7477L54.1238 35.0756ZM25.4719 34.7199H16.7677C16.4791 34.7199 16.2024 34.6052 15.9984 34.4012C15.7943 34.1971 15.6797 33.9204 15.6797 33.6318V11.8714C15.6797 11.5829 15.7943 11.3061 15.9984 11.1021C16.2024 10.898 16.4791 10.7834 16.7677 10.7834H39.6161C39.9047 10.7834 40.1814 10.898 40.3855 11.1021C40.5895 11.3061 40.7042 11.5829 40.7042 11.8714V33.6318C40.7051 33.9166 40.5937 34.1903 40.3941 34.3935L40.3723 34.4152C40.1697 34.6115 39.8983 34.7208 39.6161 34.7199H25.4719ZM42.5832 10.5288L49.4083 4.55666V24.9277C49.4076 25.07 49.3783 25.2107 49.3222 25.3415C49.2662 25.4723 49.1845 25.5906 49.0819 25.6893L42.8802 31.9008V11.8714C42.8789 11.4077 42.7776 10.9498 42.5832 10.5288ZM41.0676 8.96314C40.6183 8.73254 40.1211 8.61067 39.6161 8.60736H31.9075L38.9013 3.16725H47.6914L41.0676 8.96314ZM26.7394 3.61117C26.7945 3.57248 26.8458 3.52877 26.8928 3.4806C26.9916 3.38083 27.1092 3.30173 27.2388 3.24793C27.3685 3.19413 27.5075 3.1667 27.6479 3.16725H35.3565L28.3627 8.60736H19.6259L26.7394 3.61117ZM12.5951 29.7237C12.6502 29.685 12.7016 29.6413 12.7486 29.5931C12.8473 29.4933 12.9649 29.4142 13.0946 29.3604C13.2242 29.3066 13.3633 29.2792 13.5036 29.2798V33.6318C13.5069 34.0028 13.5755 34.3717 13.7038 34.7199H5.48167L12.5951 29.7237ZM2.62344 60.8324C2.33488 60.8324 2.05813 60.7177 1.85409 60.5137C1.65005 60.3096 1.53542 60.0329 1.53542 59.7443V37.9839C1.53542 37.6954 1.65005 37.4186 1.85409 37.2146C2.05813 37.0105 2.33488 36.8959 2.62344 36.8959H25.4719C25.7604 36.8959 26.0372 37.0105 26.2412 37.2146C26.4453 37.4186 26.5599 37.6954 26.5599 37.9839V59.7443C26.5599 60.0291 26.4481 60.3026 26.2487 60.506L26.2291 60.5244C26.0268 60.7223 25.7549 60.8329 25.4719 60.8324H2.62344ZM29.824 60.8324C29.5354 60.8324 29.2587 60.7177 29.0546 60.5137C28.8506 60.3096 28.7359 60.0329 28.7359 59.7443V37.9839C28.7359 37.6954 28.8506 37.4186 29.0546 37.2146C29.2587 37.0105 29.5354 36.8959 29.824 36.8959H52.6724C52.961 36.8959 53.2377 37.0105 53.4417 37.2146C53.6458 37.4186 53.7604 37.6954 53.7604 37.9839V59.7443C53.7585 60.0223 53.6503 60.289 53.4579 60.4896L53.434 60.506L53.4188 60.5234C53.2189 60.7183 52.9516 60.829 52.6724 60.8324H29.824ZM62.1382 51.8018L55.9365 58.0035V37.9839C55.9352 37.5202 55.8338 37.0623 55.6394 36.6413L62.4646 30.6692V51.0402C62.4638 51.1825 62.4345 51.3232 62.3785 51.454C62.3224 51.5848 62.2407 51.7031 62.1382 51.8018Z" fill="#33A6E8"></path><path d="M24.3814 26.016H20.0293C19.4522 26.016 18.8987 26.2453 18.4906 26.6533C18.0825 27.0614 17.8533 27.6149 17.8533 28.192V30.3681C17.8533 30.9452 18.0825 31.4987 18.4906 31.9068C18.8987 32.3149 19.4522 32.5441 20.0293 32.5441H24.3814C24.9585 32.5441 25.512 32.3149 25.9201 31.9068C26.3282 31.4987 26.5574 30.9452 26.5574 30.3681V28.192C26.5574 27.6149 26.3282 27.0614 25.9201 26.6533C25.512 26.2453 24.9585 26.016 24.3814 26.016ZM20.0293 30.3681V28.192H24.3814V30.3681H20.0293ZM37.4376 26.016H34.1736C33.885 26.016 33.6083 26.1306 33.4042 26.3347C33.2002 26.5387 33.0855 26.8155 33.0855 27.104C33.0855 27.3926 33.2002 27.6693 33.4042 27.8734C33.6083 28.0774 33.885 28.192 34.1736 28.192H37.4376C37.7262 28.192 38.0029 28.0774 38.207 27.8734C38.411 27.6693 38.5257 27.3926 38.5257 27.104C38.5257 26.8155 38.411 26.5387 38.207 26.3347C38.0029 26.1306 37.7262 26.016 37.4376 26.016ZM37.4376 30.3681H34.1736C33.885 30.3681 33.6083 30.4827 33.4042 30.6867C33.2002 30.8908 33.0855 31.1675 33.0855 31.4561C33.0855 31.7447 33.2002 32.0214 33.4042 32.2254C33.6083 32.4295 33.885 32.5441 34.1736 32.5441H37.4376C37.7262 32.5441 38.0029 32.4295 38.207 32.2254C38.411 32.0214 38.5257 31.7447 38.5257 31.4561C38.5257 31.1675 38.411 30.8908 38.207 30.6867C38.0029 30.4827 37.7262 30.3681 37.4376 30.3681ZM10.2371 52.1285H5.88503C5.3079 52.1285 4.75442 52.3577 4.34633 52.7658C3.93825 53.1739 3.70898 53.7274 3.70898 54.3045V56.4806C3.70898 57.0577 3.93825 57.6112 4.34633 58.0193C4.75442 58.4274 5.3079 58.6566 5.88503 58.6566H10.2371C10.8142 58.6566 11.3677 58.4274 11.7758 58.0193C12.1839 57.6112 12.4132 57.0577 12.4132 56.4806V54.3045C12.4132 53.7274 12.1839 53.1739 11.7758 52.7658C11.3677 52.3577 10.8142 52.1285 10.2371 52.1285ZM5.88503 56.4806V54.3045H10.2371V56.4806H5.88503ZM23.2934 52.1285H20.0293C19.7407 52.1285 19.464 52.2431 19.2599 52.4472C19.0559 52.6512 18.9413 52.9279 18.9413 53.2165C18.9413 53.5051 19.0559 53.7818 19.2599 53.9859C19.464 54.1899 19.7407 54.3045 20.0293 54.3045H23.2934C23.5819 54.3045 23.8587 54.1899 24.0627 53.9859C24.2668 53.7818 24.3814 53.5051 24.3814 53.2165C24.3814 52.9279 24.2668 52.6512 24.0627 52.4472C23.8587 52.2431 23.5819 52.1285 23.2934 52.1285ZM23.2934 56.4806H20.0293C19.7407 56.4806 19.464 56.5952 19.2599 56.7992C19.0559 57.0033 18.9413 57.28 18.9413 57.5686C18.9413 57.8572 19.0559 58.1339 19.2599 58.3379C19.464 58.542 19.7407 58.6566 20.0293 58.6566H23.2934C23.5819 58.6566 23.8587 58.542 24.0627 58.3379C24.2668 58.1339 24.3814 57.8572 24.3814 57.5686C24.3814 57.28 24.2668 57.0033 24.0627 56.7992C23.8587 56.5952 23.5819 56.4806 23.2934 56.4806ZM37.4376 52.1285H33.0855C32.5084 52.1285 31.9549 52.3577 31.5469 52.7658C31.1388 53.1739 30.9095 53.7274 30.9095 54.3045V56.4806C30.9095 57.0577 31.1388 57.6112 31.5469 58.0193C31.9549 58.4274 32.5084 58.6566 33.0855 58.6566H37.4376C38.0148 58.6566 38.5682 58.4274 38.9763 58.0193C39.3844 57.6112 39.6137 57.0577 39.6137 56.4806V54.3045C39.6137 53.7274 39.3844 53.1739 38.9763 52.7658C38.5682 52.3577 38.0148 52.1285 37.4376 52.1285ZM33.0855 56.4806V54.3045H37.4376V56.4806H33.0855ZM50.4939 52.1285H47.2298C46.9413 52.1285 46.6645 52.2431 46.4605 52.4472C46.2564 52.6512 46.1418 52.9279 46.1418 53.2165C46.1418 53.5051 46.2564 53.7818 46.4605 53.9859C46.6645 54.1899 46.9413 54.3045 47.2298 54.3045H50.4939C50.7824 54.3045 51.0592 54.1899 51.2632 53.9859C51.4673 53.7818 51.5819 53.5051 51.5819 53.2165C51.5819 52.9279 51.4673 52.6512 51.2632 52.4472C51.0592 52.2431 50.7824 52.1285 50.4939 52.1285ZM50.4939 56.4806H47.2298C46.9413 56.4806 46.6645 56.5952 46.4605 56.7992C46.2564 57.0033 46.1418 57.28 46.1418 57.5686C46.1418 57.8572 46.2564 58.1339 46.4605 58.3379C46.6645 58.542 46.9413 58.6566 47.2298 58.6566H50.4939C50.7824 58.6566 51.0592 58.542 51.2632 58.3379C51.4673 58.1339 51.5819 57.8572 51.5819 57.5686C51.5819 57.28 51.4673 57.0033 51.2632 56.7992C51.0592 56.5952 50.7824 56.4806 50.4939 56.4806Z" fill="#FCB07E"></path></g><defs><clipPath id="clip0_8469_97274"><rect width="64" height="64" fill="white"></rect></clipPath></defs></svg> 