<svg width="95" height="124" viewBox="0 0 95 124" fill="none" xmlns="http://www.w3.org/2000/svg">
<path d="M82.5713 6C85.885 6 88.5713 3.31371 88.5713 0C88.5713 3.31371 91.2576 6 94.5713 6C91.2576 6 88.5713 8.68629 88.5713 12C88.5713 8.68629 85.885 6 82.5713 6Z" fill="#322680"/>
<path d="M60.5713 8C60.5713 12.4183 56.9896 16 52.5713 16C56.9896 16 60.5713 19.5817 60.5713 24C60.5713 19.5817 64.153 16 68.5713 16C64.153 16 60.5713 12.4183 60.5713 8Z" fill="#322680"/>
<path fill-rule="evenodd" clip-rule="evenodd" d="M71.5042 53.9491L68.0214 60.0024C60.7127 56.6529 52.5831 54.7857 44.0175 54.7857C35.4518 54.7857 27.3222 56.6529 20.0135 60.0024L16.5307 53.9491C15.8091 52.6948 16.3375 51.0917 17.6636 50.5125L43.0453 39.4247C43.6651 39.1539 44.3698 39.1539 44.9896 39.4247L70.3713 50.5125C71.6974 51.0917 72.2258 52.6948 71.5042 53.9491ZM44.0174 51.1429C45.694 51.1429 47.0532 49.7837 47.0532 48.1071C47.0532 46.4306 45.694 45.0714 44.0174 45.0714C42.3409 45.0714 40.9817 46.4306 40.9817 48.1071C40.9817 49.7837 42.3409 51.1429 44.0174 51.1429Z" fill="#322680"/>
<path d="M31.571 77.5536C33.2476 77.5536 34.6067 76.1944 34.6067 74.5179C34.6067 72.8413 33.2476 71.4821 31.571 71.4821C29.8944 71.4821 28.5353 72.8413 28.5353 74.5179C28.5353 76.1944 29.8944 77.5536 31.571 77.5536Z" fill="#322680"/>
<path d="M59.4996 74.5179C59.4996 76.1944 58.1405 77.5536 56.4639 77.5536C54.7873 77.5536 53.4282 76.1944 53.4282 74.5179C53.4282 72.8413 54.7873 71.4821 56.4639 71.4821C58.1405 71.4821 59.4996 72.8413 59.4996 74.5179Z" fill="#322680"/>
<path fill-rule="evenodd" clip-rule="evenodd" d="M45.2323 87.0163C48.4149 86.1746 52.0353 82.4937 50.0491 79.9065C48.8728 78.3743 47.8492 78.4147 45.795 78.4958C45.2647 78.5168 44.6657 78.5404 43.9776 78.5404C43.2896 78.5404 42.6906 78.5168 42.1603 78.4958C40.1061 78.4147 39.0825 78.3743 37.9062 79.9065C35.9032 82.5156 39.6021 86.237 42.8037 87.037V99.7787C42.7648 99.8661 42.7102 99.9822 42.6388 100.118C42.4612 100.458 42.1875 100.907 41.8059 101.353C41.0481 102.237 39.9164 103.054 38.2502 103.054C36.4529 103.054 34.2179 102.127 32.3078 101.078C31.3796 100.569 30.5764 100.058 30.0053 99.674C29.7204 99.4826 29.4947 99.3238 29.3419 99.2141C29.2655 99.1592 29.2075 99.1167 29.1694 99.0886L29.1275 99.0575L29.1182 99.0505L29.1169 99.0496C28.9021 98.8872 28.6389 98.8005 28.3696 98.8036C27.986 98.8082 27.6271 98.9937 27.4016 99.304L10.857 122.072C10.5885 122.441 10.55 122.93 10.7573 123.337C10.9646 123.744 11.3827 124 11.8393 124H76.1964C76.6531 124 77.0711 123.744 77.2784 123.337C77.4857 122.93 77.4472 122.441 77.1788 122.072L60.6342 99.3041C60.4425 99.0404 60.1528 98.8648 59.8304 98.8168C59.5079 98.7689 59.1797 98.8527 58.9196 99.0493C58.9084 99.0578 57.5602 100.074 55.7133 101.087C53.8059 102.132 51.5781 103.054 49.7859 103.054C48.1197 103.054 46.988 102.237 46.2302 101.353C45.8486 100.907 45.5749 100.458 45.3973 100.118C45.3258 99.982 45.2711 99.8659 45.2323 99.7785V87.0163ZM29.4885 103.769C29.213 103.578 28.8347 103.646 28.6435 103.922C28.4524 104.197 28.5207 104.576 28.7962 104.767L36.9684 110.437L17.3456 119.809C17.043 119.954 16.9149 120.316 17.0594 120.619C17.2039 120.921 17.5664 121.05 17.8689 120.905L38.1171 111.234L44.0174 115.328L49.796 111.319L70.1703 120.907C70.4737 121.049 70.8354 120.919 70.9782 120.616C71.121 120.312 70.9908 119.951 70.6874 119.808L50.9485 110.519L59.2385 104.767C59.514 104.576 59.5823 104.197 59.3912 103.922C59.2 103.646 58.8217 103.578 58.5462 103.769L44.0174 113.85L29.4885 103.769Z" fill="#322680"/>
<path d="M43.8657 69.3571C51.4496 69.3571 58.4457 66.8404 64.0644 62.5965C57.8699 60.104 51.1039 58.7321 44.0175 58.7321C36.8557 58.7321 30.0212 60.1333 23.7732 62.6764C29.3737 66.8719 36.3294 69.3571 43.8657 69.3571Z" fill="#322680"/>
<path d="M72.4014 75.8839C72.4014 71.5125 69.3657 67.5863 67.8478 66.1696L69.0621 64.1964C74.9817 65.4613 86.821 71.4821 86.821 78.9196C86.821 84.7341 80.4201 87.6728 76.1759 89.6213C74.9914 90.1651 73.9745 90.632 73.3121 91.0625C73.0952 91.2035 72.8744 91.3484 72.6501 91.4956C69.7349 93.4083 66.2214 95.7136 62.8389 95.0089C60.9839 94.6225 63.4975 91.0875 66.4117 86.9892C69.2205 83.0392 72.4014 78.5658 72.4014 75.8839Z" fill="#322680"/>
<path d="M20.1871 66.1696C18.6692 67.5863 15.6335 71.5125 15.6335 75.8839C15.6335 78.5658 18.8144 83.0391 21.6232 86.9892C24.5373 91.0874 27.051 94.6225 25.196 95.0089C21.8135 95.7136 18.3 93.4083 15.3848 91.4956C15.1607 91.3485 14.9396 91.2034 14.7228 91.0625C14.0604 90.6319 13.0438 90.1652 11.8593 89.6214C7.6151 87.6729 1.21387 84.7341 1.21387 78.9196C1.21387 71.4821 13.0532 65.4613 18.9728 64.1964L20.1871 66.1696Z" fill="#322680"/>
<path d="M78.5713 22C78.5713 24.2091 76.7804 26 74.5713 26C76.7804 26 78.5713 27.7909 78.5713 30C78.5713 27.7909 80.3622 26 82.5713 26C80.3622 26 78.5713 24.2091 78.5713 22Z" fill="#322680"/>
</svg>