<svg width="308" height="56" viewBox="0 0 308 56" fill="none" xmlns="http://www.w3.org/2000/svg">
<path fill-rule="evenodd" clip-rule="evenodd" d="M50.1915 19.0892V6.16001H30.4073L25.5061 19.1355L20.4916 6.16001H0.6875V50H50.1915V43.9828C51.3247 45.4981 52.692 46.8048 54.3074 47.8518L54.3249 47.8631L54.3425 47.8743C56.9279 49.5196 59.8158 50.336 62.8829 50.336C64.0251 50.336 65.1543 50.2301 66.2543 50H119.545V4.48001H100.907C100.642 4.17144 100.355 3.87548 100.046 3.5933C97.9526 1.6502 95.3415 0.880005 92.7239 0.880005C90.0856 0.880005 87.4582 1.64227 85.3343 3.56707L85.305 3.59363L85.2761 3.62065C83.2325 5.53235 82.2039 8.04113 82.2039 10.776C82.2039 11.5655 82.2915 12.3335 82.4645 13.072H66.2882C65.1769 12.8413 64.0359 12.736 62.8829 12.736C59.8158 12.736 56.9279 13.5524 54.3425 15.1977L54.3249 15.2089L54.3074 15.2202C52.692 16.2672 51.3247 17.5739 50.1915 19.0892Z" fill="#322680" fill-opacity="0.12"/>
<path fill-rule="evenodd" clip-rule="evenodd" d="M150.839 50.3248L154.399 55.664H178.582L167.781 41.8918C168.447 41.0346 169.05 40.1247 169.588 39.1646C170.194 41.4653 171.24 43.5896 172.827 45.4316L172.854 45.4627L172.881 45.4934C175.795 48.765 179.719 50.24 184.055 50.24C185.126 50.24 186.183 50.147 187.215 49.95V50H206.671V43.437C208.126 45.3258 209.931 46.8751 212.066 48.0429L212.08 48.0507L212.094 48.0584C214.99 49.6173 218.19 50.336 221.569 50.336C224.42 50.336 227.153 49.7952 229.692 48.6371C232.155 47.5138 234.287 45.9277 235.99 43.8569C236.618 43.0963 237.172 42.295 237.651 41.4558C238.256 42.8833 239.066 44.2187 240.111 45.4316L240.138 45.4627L240.165 45.4934C243.079 48.765 247.003 50.24 251.339 50.24C252.41 50.24 253.467 50.147 254.499 49.95V50H273.955V43.437C275.41 45.3258 277.215 46.8751 279.35 48.0429L279.365 48.0507L279.379 48.0584C282.274 49.6173 285.474 50.336 288.853 50.336C291.704 50.336 294.438 49.7952 296.976 48.6371C299.436 47.5151 301.566 45.9316 303.268 43.8644C304.617 42.2321 305.627 40.4121 306.284 38.432L307.12 35.09L307.431 30.688C307.359 27.4319 306.625 24.3531 305.059 21.6065C303.445 18.7432 301.155 16.4929 298.255 14.9524C295.386 13.4281 292.208 12.736 288.853 12.736C285.453 12.736 282.235 13.4501 279.331 15.0136L279.317 15.0214L279.302 15.0292C277.181 16.1894 275.391 17.7285 273.955 19.6063V13.072H236.211V19.2842C234.789 17.5042 233.034 16.0486 230.971 14.9524C228.102 13.4281 224.923 12.736 221.569 12.736C218.169 12.736 214.95 13.4501 212.047 15.0136L212.032 15.0214L212.018 15.0292C209.896 16.1894 208.106 17.7285 206.671 19.6063V13.072H168.927V15.6419C166.996 12.6301 164.434 10.2199 161.285 8.4725C157.869 6.55922 154.11 5.63201 150.115 5.63201C146.137 5.63201 142.385 6.5656 138.955 8.46674C135.507 10.3777 132.75 13.0795 130.737 16.4901L130.732 16.4981L130.728 16.5061C128.701 19.9677 127.739 23.8306 127.739 27.96C127.739 32.0901 128.701 35.9585 130.714 39.4391L130.732 39.4701L130.751 39.5008C132.762 42.8673 135.504 45.5473 138.915 47.4789L138.935 47.4902L138.955 47.5013C142.385 49.4024 146.137 50.336 150.115 50.336C150.357 50.336 150.598 50.3323 150.839 50.3248Z" fill="#322680" fill-opacity="0.12"/>
<path d="M45.192 11.16V45H35.784V26.328L29.4 45H21.528L15.096 26.184V45H5.688V11.16H17.064L25.56 33.144L33.864 11.16H45.192ZM51.4114 31.512C51.4114 28.728 51.9074 26.296 52.8994 24.216C53.9234 22.136 55.2994 20.536 57.0274 19.416C58.7874 18.296 60.7394 17.736 62.8834 17.736C64.7394 17.736 66.3394 18.104 67.6834 18.84C69.0274 19.576 70.0674 20.568 70.8034 21.816V18.072H80.2114V45H70.8034V41.256C70.0674 42.504 69.0114 43.496 67.6354 44.232C66.2914 44.968 64.7074 45.336 62.8834 45.336C60.7394 45.336 58.7874 44.776 57.0274 43.656C55.2994 42.536 53.9234 40.936 52.8994 38.856C51.9074 36.744 51.4114 34.296 51.4114 31.512ZM70.8034 31.512C70.8034 29.784 70.3234 28.424 69.3634 27.432C68.4354 26.44 67.2834 25.944 65.9074 25.944C64.4994 25.944 63.3314 26.44 62.4034 27.432C61.4754 28.392 61.0114 29.752 61.0114 31.512C61.0114 33.24 61.4754 34.616 62.4034 35.64C63.3314 36.632 64.4994 37.128 65.9074 37.128C67.2834 37.128 68.4354 36.632 69.3634 35.64C70.3234 34.648 70.8034 33.272 70.8034 31.512ZM92.7244 15.576C91.0604 15.576 89.7164 15.128 88.6924 14.232C87.7004 13.304 87.2044 12.152 87.2044 10.776C87.2044 9.368 87.7004 8.2 88.6924 7.272C89.7164 6.344 91.0604 5.88 92.7244 5.88C94.3564 5.88 95.6684 6.344 96.6604 7.272C97.6844 8.2 98.1964 9.368 98.1964 10.776C98.1964 12.152 97.6844 13.304 96.6604 14.232C95.6684 15.128 94.3564 15.576 92.7244 15.576ZM97.3804 18.072V45H87.9724V18.072H97.3804ZM114.546 9.48V45H105.138V9.48H114.546ZM157.075 50.664L153.331 45.048C152.275 45.24 151.203 45.336 150.115 45.336C146.947 45.336 144.035 44.6 141.379 43.128C138.723 41.624 136.611 39.56 135.043 36.936C133.507 34.28 132.739 31.288 132.739 27.96C132.739 24.632 133.507 21.656 135.043 19.032C136.611 16.376 138.723 14.312 141.379 12.84C144.035 11.368 146.947 10.632 150.115 10.632C153.315 10.632 156.227 11.368 158.851 12.84C161.507 14.312 163.603 16.376 165.139 19.032C166.675 21.656 167.443 24.632 167.443 27.96C167.443 30.744 166.883 33.32 165.763 35.688C164.643 38.024 163.107 39.976 161.155 41.544L168.307 50.664H157.075ZM142.339 27.96C142.339 30.616 143.027 32.728 144.403 34.296C145.779 35.832 147.683 36.6 150.115 36.6C152.515 36.6 154.403 35.816 155.779 34.248C157.187 32.68 157.891 30.584 157.891 27.96C157.891 25.272 157.187 23.16 155.779 21.624C154.403 20.056 152.515 19.272 150.115 19.272C147.683 19.272 145.779 20.056 144.403 21.624C143.027 23.16 142.339 25.272 142.339 27.96ZM201.671 18.072V45H192.215V41.16C191.415 42.376 190.311 43.368 188.903 44.136C187.495 44.872 185.879 45.24 184.055 45.24C180.919 45.24 178.439 44.216 176.615 42.168C174.823 40.088 173.927 37.272 173.927 33.72V18.072H183.287V32.52C183.287 34.056 183.687 35.272 184.487 36.168C185.319 37.032 186.407 37.464 187.751 37.464C189.127 37.464 190.215 37.032 191.015 36.168C191.815 35.272 192.215 34.056 192.215 32.52V18.072H201.671ZM235.154 31.224C235.154 31.96 235.106 32.696 235.01 33.432H217.202C217.298 34.904 217.698 36.008 218.402 36.744C219.138 37.448 220.066 37.8 221.186 37.8C222.754 37.8 223.874 37.096 224.546 35.688H234.578C234.162 37.544 233.346 39.208 232.13 40.68C230.946 42.12 229.442 43.256 227.618 44.088C225.794 44.92 223.778 45.336 221.57 45.336C218.914 45.336 216.546 44.776 214.466 43.656C212.418 42.536 210.802 40.936 209.618 38.856C208.466 36.776 207.89 34.328 207.89 31.512C207.89 28.696 208.466 26.264 209.618 24.216C210.77 22.136 212.37 20.536 214.418 19.416C216.498 18.296 218.882 17.736 221.57 17.736C224.226 17.736 226.578 18.28 228.626 19.368C230.674 20.456 232.274 22.024 233.426 24.072C234.578 26.088 235.154 28.472 235.154 31.224ZM225.554 28.872C225.554 27.72 225.17 26.824 224.402 26.184C223.634 25.512 222.674 25.176 221.522 25.176C220.37 25.176 219.426 25.496 218.69 26.136C217.954 26.744 217.474 27.656 217.25 28.872H225.554ZM268.956 18.072V45H259.5V41.16C258.7 42.376 257.596 43.368 256.188 44.136C254.78 44.872 253.164 45.24 251.34 45.24C248.204 45.24 245.724 44.216 243.9 42.168C242.108 40.088 241.212 37.272 241.212 33.72V18.072H250.572V32.52C250.572 34.056 250.972 35.272 251.772 36.168C252.604 37.032 253.692 37.464 255.036 37.464C256.412 37.464 257.5 37.032 258.3 36.168C259.1 35.272 259.5 34.056 259.5 32.52V18.072H268.956ZM302.438 31.224C302.438 31.96 302.39 32.696 302.294 33.432H284.486C284.582 34.904 284.982 36.008 285.686 36.744C286.422 37.448 287.35 37.8 288.47 37.8C290.038 37.8 291.158 37.096 291.83 35.688H301.862C301.446 37.544 300.63 39.208 299.414 40.68C298.23 42.12 296.726 43.256 294.902 44.088C293.078 44.92 291.062 45.336 288.854 45.336C286.198 45.336 283.83 44.776 281.75 43.656C279.702 42.536 278.086 40.936 276.902 38.856C275.75 36.776 275.174 34.328 275.174 31.512C275.174 28.696 275.75 26.264 276.902 24.216C278.054 22.136 279.654 20.536 281.702 19.416C283.782 18.296 286.166 17.736 288.854 17.736C291.51 17.736 293.862 18.28 295.91 19.368C297.958 20.456 299.558 22.024 300.71 24.072C301.862 26.088 302.438 28.472 302.438 31.224ZM292.838 28.872C292.838 27.72 292.454 26.824 291.686 26.184C290.918 25.512 289.958 25.176 288.806 25.176C287.654 25.176 286.71 25.496 285.974 26.136C285.238 26.744 284.758 27.656 284.534 28.872H292.838Z" fill="#322680"/>
</svg>
