<?xml version="1.0" encoding="UTF-8"?> <svg xmlns="http://www.w3.org/2000/svg" width="45" height="45" viewBox="0 0 45 45" fill="none"><g clip-path="url(#clip0_7703_4653)"><path d="M37.3237 27.0674C37.3613 26.5889 37.3863 26.1133 37.3863 25.6524V7.64638C37.3863 7.52507 37.3504 7.40646 37.2831 7.3055C37.2159 7.20453 37.1203 7.12571 37.0083 7.07896L20.1994 0.047711C20.1242 0.0162183 20.0435 0 19.962 0C19.8804 0 19.7997 0.0162183 19.7245 0.047711L2.91592 7.07896C2.80397 7.12571 2.70836 7.20453 2.64111 7.3055C2.57386 7.40646 2.53798 7.52507 2.53799 7.64638V25.6524C2.53218 29.2412 3.59054 32.7512 5.57927 35.7387C7.56801 38.7261 10.3978 41.0569 13.711 42.4363L19.7252 44.9521C19.8004 44.9836 19.8811 44.9999 19.9627 44.9999C20.0442 44.9999 20.1249 44.9836 20.2001 44.9521L26.2147 42.4363C26.3075 42.3976 26.3978 42.3551 26.4896 42.3147C27.4705 43.2505 28.6413 43.9643 29.9224 44.4077C31.2036 44.8511 32.5651 45.0136 33.9147 44.8842C35.2642 44.7549 36.5701 44.3367 37.7437 43.6581C38.9173 42.9794 39.9312 42.0562 40.7165 40.9511C41.5018 39.846 42.0401 38.5849 42.295 37.2533C42.5498 35.9218 42.5151 34.551 42.1934 33.234C41.8716 31.9171 41.2703 30.6847 40.4301 29.6207C39.59 28.5567 38.5308 27.6859 37.3244 27.0674H37.3237ZM19.9621 43.7177L14.1853 41.3015C11.0963 40.0151 8.458 37.8419 6.60388 35.0565C4.74976 32.271 3.76305 28.9984 3.76846 25.6524V8.05595L19.9621 1.28205L36.1558 8.05595V25.6524C36.1558 25.947 36.146 26.25 36.1291 26.5524C35.3969 26.2953 34.6357 26.13 33.8629 26.0602C33.8671 25.9217 33.8706 25.7849 33.8706 25.6516V9.98673C33.8706 9.86538 33.8347 9.74674 33.7675 9.64572C33.7003 9.5447 33.6047 9.46581 33.4927 9.41896L20.1994 3.85865C20.1242 3.82716 20.0435 3.81094 19.962 3.81094C19.8804 3.81094 19.7997 3.82716 19.7245 3.85865L6.43119 9.41896C6.31934 9.4659 6.22384 9.54483 6.15667 9.64583C6.0895 9.74684 6.05365 9.86543 6.05361 9.98673V25.6524C6.04892 28.5476 6.90269 31.3793 8.50701 33.7895C10.1113 36.1997 12.3942 38.0801 15.067 39.1931L19.7245 41.1411C19.7997 41.1727 19.8804 41.1889 19.962 41.1889C20.0435 41.1889 20.1242 41.1727 20.1994 41.1411L24.4013 39.3833C24.7224 40.0874 25.1287 40.7494 25.611 41.3545L19.9621 43.7177ZM23.5523 35.4754C23.5518 36.4099 23.6904 37.3393 23.9636 38.233L19.9621 39.9068L15.5419 38.0579C13.0931 37.0383 11.0016 35.3156 9.53171 33.1074C8.06186 30.8993 7.27969 28.305 7.28408 25.6524V10.3963L19.9621 5.09298L32.6402 10.3963V25.6541C32.6402 25.7768 32.637 25.9034 32.6331 26.0317C30.1937 26.1307 27.8869 27.1686 26.1947 28.9284C24.5024 30.6882 23.5557 33.0339 23.5523 35.4754ZM28.2172 42.155V41.3999C28.2181 40.5377 28.561 39.7111 29.1707 39.1014C29.7803 38.4918 30.6069 38.1489 31.4691 38.1479H34.5453C35.4075 38.1489 36.2341 38.4918 36.8437 39.1014C37.4534 39.7111 37.7963 40.5377 37.7972 41.3999V42.1547C36.4021 43.1593 34.7264 43.6998 33.0072 43.6998C31.288 43.6998 29.6123 43.1596 28.2172 42.155ZM39.0119 41.0874C38.9321 39.9569 38.4274 38.8985 37.5991 38.125C36.7708 37.3514 35.6804 36.9202 34.5471 36.9178H31.4709C30.3375 36.9201 29.2471 37.3513 28.4188 38.1249C27.5905 38.8984 27.0857 39.9568 27.006 41.0874C25.9103 39.9166 25.1807 38.4512 24.907 36.8712C24.6333 35.2913 24.8274 33.6658 25.4654 32.1947C26.1034 30.7236 27.1576 29.4711 28.4982 28.5913C29.8387 27.7115 31.4072 27.2428 33.0107 27.2428C34.6142 27.2428 36.1827 27.7115 37.5233 28.5913C38.8639 29.4711 39.918 30.7236 40.556 32.1947C41.1941 33.6658 41.3882 35.2913 41.1145 36.8712C40.8407 38.4512 40.1111 39.9166 39.0154 41.0874H39.0119Z" fill="#38B6FF"></path><path d="M33.0067 29.0054C32.3162 28.9669 31.6301 29.1365 31.037 29.4922C30.444 29.848 29.9714 30.3735 29.6803 31.0008C29.3892 31.6281 29.293 32.3283 29.4042 33.0109C29.5155 33.6934 29.829 34.3269 30.3041 34.8293C30.7793 35.3318 31.3944 35.68 32.0697 35.8291C32.745 35.9782 33.4495 35.9211 34.092 35.6654C34.7346 35.4097 35.2856 34.9671 35.6738 34.3947C36.062 33.8224 36.2695 33.1468 36.2696 32.4552C36.2927 31.5656 35.9623 30.703 35.3507 30.0564C34.7392 29.4098 33.8963 29.0318 33.0067 29.0054ZM33.0067 34.6743C32.5595 34.7137 32.1108 34.617 31.7194 34.397C31.328 34.177 31.0123 33.8438 30.8136 33.4412C30.6148 33.0386 30.5423 32.5854 30.6057 32.1409C30.669 31.6964 30.8651 31.2814 31.1683 30.9503C31.4716 30.6192 31.8678 30.3875 32.305 30.2855C32.7422 30.1834 33.2001 30.2159 33.6185 30.3786C34.037 30.5413 34.3965 30.8266 34.65 31.1972C34.9035 31.5678 35.0391 32.0063 35.0391 32.4552C35.0625 33.0188 34.8618 33.5687 34.481 33.9848C34.1002 34.4008 33.5701 34.6492 33.0067 34.6757V34.6743Z" fill="#38B6FF"></path><path d="M19.9621 9.94531C18.4211 9.94531 16.9148 10.4023 15.6335 11.2584C14.3522 12.1145 13.3536 13.3313 12.7639 14.755C12.1742 16.1787 12.0199 17.7453 12.3205 19.2567C12.6211 20.768 13.3632 22.1563 14.4528 23.2459C15.5424 24.3356 16.9307 25.0776 18.4421 25.3783C19.9535 25.6789 21.52 25.5246 22.9437 24.9349C24.3674 24.3452 25.5842 23.3465 26.4404 22.0653C27.2965 20.784 27.7534 19.2776 27.7534 17.7366C27.7511 15.671 26.9295 13.6906 25.4688 12.2299C24.0082 10.7693 22.0278 9.94764 19.9621 9.94531ZM25.8891 20.5309H23.913C24.0565 19.8123 24.1426 19.0834 24.1703 18.3512H26.4906C26.419 19.1073 26.2154 19.845 25.8891 20.5309ZM14.0351 14.941H16.0109C15.8677 15.6596 15.7816 16.3885 15.7536 17.1207H13.4332C13.505 16.3646 13.7087 15.6268 14.0351 14.941ZM20.5773 13.7105V11.3445C21.2186 11.6792 21.8395 12.5135 22.2866 13.7112L20.5773 13.7105ZM22.6516 14.941C22.8118 15.6576 22.9077 16.3871 22.9381 17.1207H20.5773V14.941H22.6516ZM19.3469 11.3438V13.7105H17.6376C18.0848 12.5152 18.7056 11.6792 19.3469 11.3445V11.3438ZM19.3469 14.941V17.1207H16.9861C17.0164 16.387 17.1122 15.6576 17.2727 14.941H19.3469ZM13.4325 18.3512H15.7528C15.7809 19.0834 15.867 19.8122 16.0102 20.5309H14.0344C13.708 19.845 13.5043 19.1073 13.4325 18.3512ZM16.9861 18.3512H19.3469V20.5309H17.2727C17.1122 19.8143 17.0164 19.0848 16.9861 18.3512ZM19.3469 21.7613V24.128C18.7056 23.7937 18.0848 22.9591 17.6372 21.7613H19.3469ZM20.5773 24.128V21.7613H22.2866C21.8395 22.9595 21.2186 23.7937 20.5773 24.128ZM20.5773 20.5309V18.3512H22.9381C22.9077 19.0848 22.8118 19.8143 22.6516 20.5309H20.5773ZM24.1703 17.1207C24.1424 16.3885 24.0563 15.6596 23.913 14.941H25.8891C26.2158 15.6268 26.4197 16.3645 26.4917 17.1207H24.1703ZM25.1315 13.7105H23.5948C23.3845 13.0357 23.0892 12.3903 22.7159 11.79C23.6618 12.2298 24.4898 12.8881 25.1315 13.7105ZM17.2066 11.7907C16.834 12.3909 16.5392 13.036 16.3294 13.7105H14.7927C15.4341 12.8886 16.2614 12.2306 17.2066 11.7907ZM14.7924 21.7613H16.3294C16.5392 22.4361 16.8339 23.0815 17.2066 23.6819C16.2612 23.2418 15.4338 22.5835 14.7924 21.7613ZM22.7173 23.6823C23.0905 23.0818 23.3859 22.4363 23.5962 21.7613H25.1332C24.4913 22.5839 23.6633 23.2421 22.7173 23.6823Z" fill="#38B6FF"></path></g><defs><clipPath id="clip0_7703_4653"><rect width="45" height="45" fill="white"></rect></clipPath></defs></svg> 