<?xml version="1.0" encoding="UTF-8"?> <svg xmlns="http://www.w3.org/2000/svg" width="45" height="45" viewBox="0 0 45 45" fill="none"><g clip-path="url(#clip0_7703_4542)"><path d="M44.4432 10.5625L44.0649 10.0232C43.9719 9.89024 43.83 9.79944 43.6703 9.77066C43.5106 9.74187 43.3459 9.77744 43.2123 9.8696C42.3918 10.4321 41.4511 10.795 40.4653 10.9293C39.4796 11.0636 38.4761 10.9656 37.535 10.643L33.4537 9.2396C31.2516 8.47734 28.8657 8.42679 26.6334 9.09511L25.2271 9.51312V7.22796C25.8584 6.67396 26.3059 5.94066 26.5098 5.12585C26.7137 4.31104 26.6644 3.45342 26.3684 2.66736C26.0724 1.8813 25.5438 1.20415 24.8531 0.726194C24.1624 0.248236 23.3424 -0.0078125 22.5025 -0.0078125C21.6626 -0.0078125 20.8426 0.248236 20.1519 0.726194C19.4612 1.20415 18.9326 1.8813 18.6366 2.66736C18.3406 3.45342 18.2913 4.31104 18.4952 5.12585C18.6991 5.94066 19.1465 6.67396 19.7779 7.22796V9.51312L18.3716 9.09511C16.1393 8.42725 13.7535 8.47767 11.5513 9.23925L7.46511 10.6427C6.52398 10.9652 5.52049 11.0632 4.53474 10.9289C3.549 10.7946 2.60829 10.4317 1.78772 9.86925C1.65416 9.777 1.48951 9.74138 1.32976 9.77016C1.17 9.79895 1.02814 9.88981 0.935185 10.0229L0.556552 10.5625C0.275156 10.9581 0.0933825 11.4157 0.026669 11.8965C-0.0400444 12.3774 0.0102733 12.8672 0.173349 13.3244C0.339525 13.7919 0.614501 14.2132 0.975582 14.5535C1.33666 14.8938 1.7735 15.1434 2.25003 15.2816C3.27428 15.5805 4.33585 15.7323 5.40284 15.7323C6.6369 15.7334 7.86256 15.5292 9.02956 15.1279L9.1621 15.0826L5.37894 22.4784H4.81643C4.29028 22.4776 3.78356 22.6772 3.39928 23.0366C3.01501 23.396 2.78202 23.8883 2.74768 24.4133C2.71334 24.9383 2.88023 25.4567 3.21441 25.8631C3.5486 26.2695 4.02501 26.5334 4.54679 26.6012V28.3449C4.54781 29.2537 4.90927 30.125 5.55188 30.7676C6.19448 31.4102 7.06574 31.7716 7.97452 31.7726H12.8321C13.7408 31.7716 14.6121 31.4102 15.2547 30.7676C15.8973 30.125 16.2588 29.2537 16.2598 28.3449V26.6012C16.7816 26.5334 17.258 26.2695 17.5922 25.8631C17.9264 25.4567 18.0932 24.9383 18.0589 24.4133C18.0246 23.8883 17.7916 23.396 17.4073 23.0366C17.023 22.6772 16.5163 22.4776 15.9901 22.4784H15.4276L11.2746 14.3559L13.1105 13.7231C14.3657 13.2889 15.7256 13.2601 16.9981 13.6408L19.7754 14.4659V35.0988H10.0073C9.37811 35.0995 8.77495 35.3498 8.33008 35.7947C7.88521 36.2395 7.63495 36.8427 7.63421 37.4718V39.551H5.63558C5.09962 39.5515 4.58577 39.7647 4.20679 40.1437C3.82781 40.5226 3.61465 41.0365 3.61409 41.5725V44.385C3.61404 44.4658 3.62993 44.5458 3.66083 44.6204C3.69173 44.6951 3.73705 44.763 3.79419 44.8201C3.85133 44.8772 3.91917 44.9226 3.99383 44.9534C4.0685 44.9844 4.14852 45.0002 4.22933 45.0002H40.7707C40.9339 45.0002 41.0904 44.9354 41.2058 44.82C41.3212 44.7046 41.386 44.5481 41.386 44.385V41.5725C41.3854 41.0365 41.1723 40.5226 40.7933 40.1437C40.4143 39.7647 39.9004 39.5515 39.3645 39.551H37.3659V37.4718C37.3651 36.8427 37.1149 36.2395 36.67 35.7947C36.2251 35.3498 35.6219 35.0995 34.9928 35.0988H25.2246V14.4673L28.002 13.6422C29.2744 13.261 30.6345 13.2897 31.8896 13.7245L33.7258 14.3573L29.5728 22.4784H29.0103C28.4841 22.4776 27.9774 22.6772 27.5931 23.0366C27.2088 23.396 26.9758 23.8883 26.9415 24.4133C26.9072 24.9383 27.0741 25.4567 27.4082 25.8631C27.7424 26.2695 28.2188 26.5334 28.7406 26.6012V28.3449C28.7416 29.2537 29.1031 30.125 29.7457 30.7676C30.3883 31.4102 31.2596 31.7716 32.1684 31.7726H37.0241C37.9329 31.7716 38.8042 31.4102 39.4468 30.7676C40.0894 30.125 40.4508 29.2537 40.4519 28.3449V26.6012C40.9736 26.5334 41.45 26.2696 41.7842 25.8632C42.1184 25.4568 42.2853 24.9385 42.251 24.4135C42.2167 23.8885 41.9838 23.3962 41.5996 23.0368C41.2154 22.6773 40.7087 22.4777 40.1826 22.4784H39.6201L35.838 15.0822L35.9705 15.1276C37.1373 15.5288 38.3627 15.733 39.5965 15.7319C40.6634 15.732 41.7249 15.5802 42.749 15.2812C43.2258 15.143 43.6629 14.8934 44.0242 14.5529C44.3855 14.2124 44.6606 13.7908 44.8267 13.323C44.9896 12.866 45.0398 12.3764 44.973 11.8958C44.9062 11.4152 44.7245 10.9579 44.4432 10.5625ZM22.5 1.23066C23.0737 1.23066 23.6344 1.40076 24.1114 1.71946C24.5884 2.03816 24.9601 2.49114 25.1796 3.02112C25.3992 3.55109 25.4566 4.13427 25.3447 4.69689C25.2328 5.25951 24.9565 5.77631 24.5509 6.18193C24.1453 6.58756 23.6285 6.8638 23.0659 6.97571C22.5032 7.08762 21.9201 7.03018 21.3901 6.81066C20.8601 6.59114 20.4071 6.21939 20.0884 5.74242C19.7697 5.26545 19.5996 4.70469 19.5996 4.13105C19.6005 3.36207 19.9063 2.62484 20.4501 2.08109C20.9938 1.53734 21.7311 1.2315 22.5 1.23066ZM15.0293 28.3449C15.0287 28.9275 14.797 29.486 14.385 29.8979C13.9731 30.3098 13.4146 30.5415 12.8321 30.5422H7.97593C7.39338 30.5415 6.83487 30.3098 6.42295 29.8979C6.01102 29.486 5.77931 28.9275 5.77866 28.3449V26.6223H15.0293V28.3449ZM16.8311 24.548C16.8303 24.7708 16.7415 24.9843 16.584 25.1419C16.4264 25.2994 16.2129 25.3882 15.9901 25.389H4.81643C4.70458 25.3913 4.59339 25.3712 4.48938 25.33C4.38537 25.2888 4.29064 25.2272 4.21072 25.1489C4.1308 25.0706 4.06731 24.9771 4.02397 24.874C3.98063 24.7709 3.9583 24.6601 3.9583 24.5482C3.9583 24.4363 3.98063 24.3256 4.02397 24.2224C4.06731 24.1193 4.1308 24.0258 4.21072 23.9475C4.29064 23.8692 4.38537 23.8077 4.48938 23.7664C4.59339 23.7252 4.70458 23.7052 4.81643 23.7075H15.9901C16.2133 23.7076 16.4272 23.7964 16.5849 23.9543C16.7426 24.1122 16.8312 24.3263 16.8311 24.5494V24.548ZM6.76233 22.477L10.4042 15.3561L14.0457 22.4784L6.76233 22.477ZM17.3486 12.461C15.8305 12.0065 14.2079 12.041 12.7104 12.5594L8.62913 13.9643C6.67974 14.6286 4.57297 14.6761 2.59561 14.1003C2.30586 14.0188 2.04006 13.8685 1.82077 13.6623C1.60148 13.4561 1.43517 13.2001 1.33597 12.9159C1.2389 12.6432 1.20908 12.3511 1.24905 12.0644C1.28902 11.7777 1.39759 11.5049 1.56554 11.2692L1.60772 11.2087C2.54847 11.7472 3.59317 12.079 4.67221 12.182C5.75125 12.2851 6.83987 12.157 7.86554 11.8064L11.9468 10.4029C13.9069 9.72428 16.0307 9.67951 18.0176 10.275L19.7754 10.797V13.1838L17.3486 12.461ZM40.1555 41.5703V43.7676H4.84456V41.5703C4.8454 41.361 4.92907 41.1605 5.07729 41.0127C5.22552 40.8649 5.42624 40.7817 5.63558 40.7814H39.3645C39.5742 40.7817 39.7752 40.8651 39.9235 41.0134C40.0718 41.1617 40.1552 41.3628 40.1555 41.5725V41.5703ZM36.1354 37.4697V39.551H8.86468V37.4718C8.86505 37.1689 8.98555 36.8785 9.19974 36.6643C9.41394 36.4501 9.70434 36.3296 10.0073 36.3293H34.9928C35.2957 36.3296 35.5861 36.4501 35.8003 36.6643C36.0145 36.8785 36.135 37.1689 36.1354 37.4718V37.4697ZM21.0059 35.0988V7.97785C21.966 8.35661 23.0341 8.35661 23.9942 7.97785V35.0988H21.0059ZM39.221 28.3449C39.2204 28.9275 38.9887 29.486 38.5768 29.8979C38.1648 30.3098 37.6063 30.5415 37.0238 30.5422H32.168C31.5854 30.5415 31.0269 30.3098 30.615 29.8979C30.2031 29.486 29.9714 28.9275 29.9707 28.3449V26.6223H39.221V28.3449ZM41.0228 24.548C41.0226 24.771 40.934 24.9847 40.7764 25.1423C40.6188 25.3 40.4051 25.3887 40.1822 25.389H29.0099C28.8981 25.3913 28.7869 25.3712 28.6829 25.33C28.5788 25.2888 28.4841 25.2272 28.4042 25.1489C28.3243 25.0706 28.2608 24.9771 28.2175 24.874C28.1741 24.7709 28.1518 24.6601 28.1518 24.5482C28.1518 24.4363 28.1741 24.3256 28.2175 24.2224C28.2608 24.1193 28.3243 24.0258 28.4042 23.9475C28.4841 23.8692 28.5788 23.8077 28.6829 23.7664C28.7869 23.7252 28.8981 23.7052 29.0099 23.7075H40.1836C40.4065 23.7081 40.62 23.7971 40.7773 23.955C40.9346 24.1128 41.0229 24.3266 41.0228 24.5494V24.548ZM30.9544 22.4784L34.5959 15.3561L38.2377 22.4784H30.9544ZM43.6655 12.9159C43.5661 13.2003 43.3995 13.4564 43.1799 13.6626C42.9603 13.8688 42.6941 14.019 42.4041 14.1003C40.4268 14.676 38.3202 14.6285 36.3709 13.9643L32.2896 12.5608C30.7921 12.0426 29.1696 12.0082 27.6515 12.4624L25.2246 13.1838V10.797L26.9825 10.275C28.9693 9.67934 31.0933 9.72423 33.0532 10.4033L37.1345 11.8067C38.1602 12.1574 39.2488 12.2855 40.3279 12.1824C41.4069 12.0793 42.4516 11.7475 43.3923 11.2091L43.4345 11.2695C43.6024 11.5052 43.711 11.778 43.7509 12.0646C43.7909 12.3512 43.7611 12.6432 43.6641 12.9159H43.6655Z" fill="#38B6FF"></path></g><defs><clipPath id="clip0_7703_4542"><rect width="45" height="45" fill="white"></rect></clipPath></defs></svg> 