<?xml version="1.0" encoding="UTF-8"?> <svg xmlns="http://www.w3.org/2000/svg" width="49" height="49" viewBox="0 0 49 49" fill="none"><g clip-path="url(#clip0_7828_21)"><path d="M26.5423 15.3009V16.3603C26.5423 17.5087 25.6463 18.4064 24.5 18.4064H21.4002C20.2539 18.4064 19.3578 19.304 19.3578 20.4524C19.3578 21.0266 19.1157 21.5118 18.7847 21.9243C18.4618 22.3367 17.8886 22.4176 17.3962 22.4176H2.04235L1.1463 22.3367C1.63872 16.7728 4.08469 11.783 7.75767 8.02246L8.25009 8.10333H17.4769C18.6232 8.10333 19.5193 9.00101 19.5193 10.1494V11.2088C19.5193 12.3572 20.4153 13.2548 21.5616 13.2548H24.6615C25.6382 13.2548 26.5423 14.1525 26.5423 15.3009Z" fill="#C2E3F7"></path><path d="M22.4577 38.7778C23.604 38.7778 24.5 39.6755 24.5 40.8239C24.5 41.3981 24.2578 41.8833 23.9269 42.2957C23.604 42.7082 23.0308 42.8699 22.4577 42.8699H20.4153C19.2691 42.8699 18.373 43.7676 18.373 44.916V46.962L17.7999 47.0429C13.0613 45.6519 8.89591 42.7891 5.95752 38.9477L6.11897 38.7859H22.4496L22.4577 38.7778Z" fill="white"></path><path d="M39.6843 25.5229C44.2534 25.5229 48.0152 29.2026 47.9344 33.788C47.8537 38.6969 39.6843 48.0214 39.6843 48.0214C39.6843 48.0214 31.515 39.9262 31.4343 33.788C31.4343 29.2026 35.188 25.5229 39.6843 25.5229ZM43.769 33.8689C43.769 31.5802 41.8881 29.6959 39.6036 29.6959C37.3191 29.6959 35.4382 31.5802 35.4382 33.8689C35.4382 36.1575 37.3191 38.0418 39.6036 38.0418C41.8881 38.0418 43.769 36.1575 43.769 33.8689Z" fill="#C2E3F7"></path><path d="M24.5 49C22.1348 49 19.7614 48.6765 17.4769 48.0215C12.5769 46.5496 8.33081 43.6059 5.14217 39.5947C1.80016 35.2599 0 30.0195 0 24.5445C0 23.8085 0 23.0726 0.0807249 22.3367C0.573147 16.7727 3.01911 11.4595 6.94234 7.36739C11.5921 2.62023 17.7998 0 24.5 0C31.2002 0 37.1577 2.53936 41.8155 7.19756C46.4733 11.8638 49 17.9939 49 24.5445C49 25.1187 48.5076 25.612 47.9344 25.612C47.3613 25.612 46.9577 25.0378 46.9577 24.4636C46.9577 12.0256 36.9155 1.96518 24.5 1.96518C18.373 1.96518 12.6577 4.33471 8.41153 8.75838C4.81928 12.438 2.53476 17.3469 2.12306 22.4176C2.04234 23.1535 2.04234 23.8085 2.04234 24.4636C2.04234 29.5342 3.67298 34.2814 6.78089 38.2926C9.71927 42.0531 13.5618 44.6734 18.1308 46.0644C20.1731 46.7194 22.3769 46.962 24.5807 46.962C25.1539 46.962 25.6382 47.4554 25.6382 48.0215C25.5575 48.5148 25.0651 49 24.4919 49H24.5Z" fill="#0C91DF"></path><path d="M17.3962 23.4771H2.04236C1.46921 23.4771 0.984863 22.9838 0.984863 22.4177C0.984863 21.8516 1.47728 21.3502 2.04236 21.3502H17.3962C17.6384 21.3502 17.8887 21.2693 18.1308 21.0267C18.2923 20.865 18.4537 20.6143 18.4537 20.2908C18.4537 18.5763 19.8422 17.1853 21.5536 17.1853H24.6534C25.2265 17.1853 25.7109 16.692 25.7109 16.1178V15.0584C25.7109 14.4842 25.2185 13.9909 24.6534 13.9909H21.5536C19.8422 13.9909 18.4537 12.5999 18.4537 10.8854V10.1495C18.4537 9.57531 17.9613 9.082 17.3882 9.082H8.1613C7.58816 9.082 7.10381 8.58868 7.10381 8.01449C7.10381 7.44031 7.59623 6.95508 8.1613 6.95508H17.3882C19.0995 6.95508 20.488 8.34607 20.488 10.0605V11.128C20.488 11.7022 20.9804 12.1875 21.5455 12.1875H24.6453C26.3567 12.1875 27.7452 13.5784 27.7452 15.2929V16.3523C27.7452 18.0668 26.3567 19.4578 24.6453 19.4578H21.5455C20.9723 19.4578 20.488 19.9511 20.488 20.5172C20.488 21.334 20.1651 22.0699 19.5919 22.725C18.9381 23.1375 18.2035 23.4609 17.3882 23.4609L17.3962 23.4771Z" fill="#0C91DF"></path><path d="M18.373 48.0217C17.7998 48.0217 17.3155 47.5284 17.3155 46.9623V44.9162C17.3155 43.2017 18.704 41.8108 20.4153 41.8108H22.4577C22.6998 41.8108 22.9501 41.7299 23.1923 41.4792C23.3537 41.3174 23.5152 41.0667 23.5152 40.7433C23.5152 40.1691 23.0227 39.6757 22.4577 39.6757H6.12703C5.55388 39.6757 5.06146 39.1824 5.06146 38.6163C5.06146 38.0502 5.55388 37.5488 6.12703 37.5488H22.4577C24.169 37.5488 25.5575 38.9398 25.5575 40.6543C25.5575 41.4711 25.2346 42.207 24.6615 42.8621C24.0883 43.4363 23.273 43.7598 22.4577 43.7598H20.4153C19.8422 43.7598 19.3578 44.2531 19.3578 44.8192V46.9461C19.4386 47.5203 18.9461 48.0055 18.3811 48.0055L18.373 48.0217Z" fill="#0C91DF"></path><path d="M39.6843 48.9998C39.4422 48.9998 39.1919 48.9189 38.9498 48.6763C38.6269 48.3528 30.4575 40.2495 30.3768 33.707C30.3768 31.2485 31.3535 28.879 33.073 27.1645C34.7843 25.3611 37.1577 24.4634 39.6843 24.4634C42.211 24.4634 44.5843 25.4419 46.2957 27.2454C48.0071 28.9598 48.9919 31.3374 48.9112 33.7879C48.9112 36.0765 47.442 39.2709 44.5843 43.363C42.542 46.3068 40.4997 48.5954 40.4189 48.6844C40.3382 48.8461 40.0072 49.0079 39.6843 49.0079C39.7382 49.0079 39.7382 49.0079 39.6843 49.0079V48.9998ZM39.6843 26.5094C37.7227 26.5094 35.9306 27.2454 34.5422 28.6363C33.1537 30.0273 32.4191 31.8308 32.4191 33.707C32.4191 38.2843 37.642 44.3416 39.6036 46.3876C42.1384 43.363 46.7881 37.0631 46.8689 33.6261C46.8689 31.7418 46.1343 29.9465 44.8265 28.5555C43.5188 27.2454 41.7267 26.5094 39.6843 26.5094Z" fill="#0C91DF"></path><path d="M39.6036 39.1015C36.746 39.1015 34.3807 36.7319 34.3807 33.8691C34.3807 31.0063 36.746 28.6367 39.6036 28.6367C42.4613 28.6367 44.8265 31.0063 44.8265 33.8691C44.8265 36.7319 42.4613 39.1015 39.6036 39.1015ZM39.6036 30.6747C37.8923 30.6747 36.4231 32.0657 36.4231 33.8691C36.4231 35.6725 37.8115 37.0635 39.6036 37.0635C41.3957 37.0635 42.7923 35.6725 42.7923 33.8691C42.7923 32.0657 41.3231 30.6747 39.6036 30.6747Z" fill="#0C91DF"></path></g><defs><clipPath id="clip0_7828_21"><rect width="49" height="49" fill="white"></rect></clipPath></defs></svg> 