<?xml version="1.0" encoding="UTF-8"?> <svg xmlns="http://www.w3.org/2000/svg" width="111" height="30" viewBox="0 0 111 30" fill="none"><path d="M106.516 7.36201H110.916L102.407 29.5558H98.0722L100.854 22.1794L94.5781 7.36201H98.9781L102.86 17.1324H102.893L106.516 7.36201Z" fill="white"></path><path d="M88.5886 7.10283C92.0179 7.10283 94.1532 9.14103 94.1532 13.9615V23.1496H89.915V14.9968C89.915 12.4733 89.1385 10.8881 87.165 10.8881C85.3857 10.8881 83.9298 12.4086 83.9298 15.2556V23.1496H79.6916V14.9968C79.6916 12.4733 78.8828 10.8881 76.9093 10.8881C75.0005 10.8881 73.577 12.4086 73.577 15.2556V23.1496H69.3389V7.36165H73.577V9.46456H73.6094C74.8388 7.91164 76.5535 7.10283 78.3328 7.10283C80.4034 7.10283 82.0534 7.87929 83.0239 9.62632H83.0886C84.3827 7.97634 86.3239 7.10283 88.5886 7.10283Z" fill="white"></path><path d="M62.2719 7.36165H66.4777V23.1496H62.466V21.2408H62.369C61.3014 22.632 59.6837 23.4084 57.6455 23.4084C53.278 23.4084 50.1074 20.1732 50.1074 15.288C50.1074 10.4998 53.3103 7.10283 57.5485 7.10283C59.4249 7.10283 61.0425 7.78223 62.1749 9.14103H62.2719V7.36165ZM58.422 19.6232C60.622 19.6232 62.4337 17.9085 62.4337 15.3203C62.4337 12.7969 60.7514 10.8881 58.4543 10.8881C56.1897 10.8881 54.3779 12.6027 54.3779 15.3203C54.3779 17.8762 56.0603 19.6232 58.422 19.6232Z" fill="white"></path><path d="M42.6794 7.10283C46.1087 7.10283 48.244 9.14103 48.244 13.9615V23.1496H44.0058V14.9968C44.0058 12.4733 43.2294 10.8881 41.2559 10.8881C39.4765 10.8881 38.0206 12.4086 38.0206 15.2556V23.1496H33.7825V14.9968C33.7825 12.4733 32.9737 10.8881 31.0002 10.8881C29.0914 10.8881 27.6679 12.4086 27.6679 15.2556V23.1496H23.4297V7.36165H27.6679V9.46456H27.7002C28.9296 7.91164 30.6443 7.10283 32.4237 7.10283C34.4942 7.10283 36.1442 7.87929 37.1148 9.62632H37.1795C38.4736 7.97634 40.4147 7.10283 42.6794 7.10283Z" fill="white"></path><path d="M17.3071 23.1498L15.7542 18.5558H6.922L5.36909 23.1498H0.613281L9.12197 0.179611H13.4895L22.0629 23.1498H17.3071ZM8.24845 14.6735H14.4278L11.3543 5.64717H11.2896L8.24845 14.6735Z" fill="white"></path></svg> 