<?xml version="1.0" encoding="UTF-8"?> <svg xmlns="http://www.w3.org/2000/svg" width="111" height="30" viewBox="0 0 111 30" fill="none"><path d="M106.516 7.36203H110.916L102.407 29.5558H98.0719L100.854 22.1794L94.5779 7.36203H98.9778L102.86 17.1325H102.892L106.516 7.36203Z" fill="#38B6FF"></path><path d="M88.5886 7.10284C92.0179 7.10284 94.1532 9.14104 94.1532 13.9616V23.1496H89.915V14.9968C89.915 12.4733 89.1385 10.8881 87.165 10.8881C85.3857 10.8881 83.9298 12.4086 83.9298 15.2557V23.1496H79.6916V14.9968C79.6916 12.4733 78.8828 10.8881 76.9093 10.8881C75.0005 10.8881 73.577 12.4086 73.577 15.2557V23.1496H69.3389V7.36166H73.577V9.46457H73.6094C74.8388 7.91166 76.5535 7.10284 78.3328 7.10284C80.4034 7.10284 82.0534 7.8793 83.0239 9.62633H83.0886C84.3827 7.97636 86.3239 7.10284 88.5886 7.10284Z" fill="#38B6FF"></path><path d="M62.2719 7.36166H66.4777V23.1496H62.466V21.2409H62.369C61.3014 22.632 59.6837 23.4085 57.6455 23.4085C53.278 23.4085 50.1074 20.1732 50.1074 15.288C50.1074 10.4998 53.3103 7.10284 57.5485 7.10284C59.4249 7.10284 61.0425 7.78225 62.1749 9.14105H62.2719V7.36166ZM58.422 19.6232C60.622 19.6232 62.4337 17.9086 62.4337 15.3204C62.4337 12.7969 60.7514 10.8881 58.4543 10.8881C56.1897 10.8881 54.3779 12.6028 54.3779 15.3204C54.3779 17.8762 56.0603 19.6232 58.422 19.6232Z" fill="#38B6FF"></path><path d="M42.68 7.10284C46.1093 7.10284 48.2446 9.14104 48.2446 13.9616V23.1496H44.0064V14.9968C44.0064 12.4733 43.23 10.8881 41.2565 10.8881C39.4771 10.8881 38.0212 12.4086 38.0212 15.2557V23.1496H33.7831V14.9968C33.7831 12.4733 32.9743 10.8881 31.0008 10.8881C29.092 10.8881 27.6685 12.4086 27.6685 15.2557V23.1496H23.4303V7.36166H27.6685V9.46457H27.7008C28.9302 7.91166 30.6449 7.10284 32.4243 7.10284C34.4948 7.10284 36.1448 7.8793 37.1154 9.62633H37.1801C38.4742 7.97636 40.4153 7.10284 42.68 7.10284Z" fill="#38B6FF"></path><path d="M17.3073 23.1498L15.7543 18.5558H6.92213L5.36921 23.1498H0.613403L9.12209 0.179626H13.4897L22.0631 23.1498H17.3073ZM8.24858 14.6735H14.4279L11.3544 5.64719H11.2897L8.24858 14.6735Z" fill="#38B6FF"></path></svg> 