<?xml version="1.0" encoding="UTF-8"?> <svg xmlns="http://www.w3.org/2000/svg" width="44" height="44" viewBox="0 0 44 44" fill="none"><path d="M40.6054 15.7512C38.878 7.005 31.0114 0.350586 22 0.350586C12.9886 0.350586 5.122 7.005 3.39461 15.7512C1.7381 16.152 0.5 17.637 0.5 19.415V29.4932C0.5 31.5772 2.19531 33.2725 4.2793 33.2725H6.79883C7.49514 33.2725 8.05859 32.709 8.05859 32.0127V16.8955C8.05859 16.1992 7.49514 15.6357 6.79883 15.6357H6.04868C7.78229 8.37361 14.4045 2.87012 22 2.87012C29.5955 2.87012 36.2177 8.37361 37.9513 15.6357H37.2012C36.5049 15.6357 35.9414 16.1992 35.9414 16.8955V32.0127C35.9414 32.709 36.5049 33.2641 37.2012 33.2641H38.3335C37.7482 36.1356 35.2037 38.3115 32.1621 38.3115H25.5472C25.0255 36.8483 23.6402 35.792 22 35.792C19.916 35.792 18.2207 37.4873 18.2207 39.5713C18.2207 41.6553 19.916 43.3506 22 43.3506C23.6402 43.3506 25.0255 42.2942 25.5472 40.8311H32.1621C36.6606 40.8311 40.3417 37.4313 40.8731 33.0738C42.3914 32.583 43.5 31.1728 43.5 29.4932V19.415C43.5 17.637 42.2619 16.152 40.6054 15.7512Z" fill="#38B6FF"></path><path d="M22 10.5967C15.748 10.5967 10.5781 15.6825 10.5781 21.9346C10.5781 23.8513 11.0788 25.7434 12.0322 27.4436L10.6433 31.6141C10.5692 31.836 10.5584 32.0742 10.6121 32.3019C10.6658 32.5296 10.7818 32.7379 10.9472 32.9034C11.2867 33.2428 11.7897 33.359 12.2366 33.2072L16.4071 31.8183C18.1072 32.7717 20.0833 33.2725 22 33.2725C28.252 33.2725 33.4219 28.1866 33.4219 21.9346C33.4219 15.6825 28.252 10.5967 22 10.5967Z" fill="#FFCC6C"></path><path d="M17.3035 18.1919L26.6984 18.1919" stroke="#FFF8DE" stroke-width="1.34375" stroke-linecap="round"></path><path d="M17.3035 25.8704L26.6984 25.8704" stroke="#FFF8DE" stroke-width="1.34375" stroke-linecap="round"></path><path d="M15.8573 22.0308L28.143 22.0308" stroke="#FFF8DE" stroke-width="1.34375" stroke-linecap="round"></path></svg> 