<?xml version="1.0" encoding="UTF-8"?> <svg xmlns="http://www.w3.org/2000/svg" width="49" height="50" viewBox="0 0 49 50" fill="none"><path d="M24.2041 3.86221L19.0187 15.9329H13.8332C12.9726 15.9329 12.1334 15.9975 11.3158 16.1696L13.4674 11.0057L13.5535 10.812L13.6826 10.4677C13.7471 10.3171 13.7902 10.188 13.8547 10.0805C16.3506 4.29254 19.1478 2.48516 24.2041 3.86221Z" fill="#FFCB6C"></path><path d="M38.8143 16.5147L38.7713 16.4931C37.4803 16.1274 36.1678 15.9337 34.8338 15.9337H21.3645L26.2057 4.68064L26.2702 4.53003C26.5715 4.63761 26.8942 4.78823 27.217 4.89581L31.9721 6.89683C34.6186 7.99417 36.469 9.13454 37.6094 10.5116C37.803 10.7698 37.9752 11.0065 38.1473 11.2862C38.3409 11.5874 38.4916 11.8886 38.5776 12.2114C38.6637 12.405 38.7282 12.5772 38.7713 12.7708C39.094 13.8681 39.1155 15.1161 38.8143 16.5147Z" fill="#FFCB6C"></path><path d="M25.4524 37.1058H25.9903C26.6358 37.1058 27.1737 36.5249 27.1737 35.8148C27.1737 34.9111 26.9155 34.782 26.3561 34.5669L25.4524 34.2441V37.1058Z" fill="#38B6FF"></path><path d="M37.8672 19.591C36.8989 19.3113 35.8877 19.1606 34.8334 19.1606H13.8334C12.3703 19.1606 10.9932 19.4404 9.70223 19.9998C5.95837 21.6135 3.33337 25.3358 3.33337 29.6606V33.8563C3.33337 34.3727 3.37641 34.8676 3.44096 35.384C3.91432 42.2262 7.5721 45.884 14.4143 46.3358C14.9092 46.4004 15.4041 46.4434 15.942 46.4434H32.7248C40.6858 46.4434 44.8815 42.6565 45.2903 35.1258C45.3119 34.717 45.3334 34.2867 45.3334 33.8563V29.6606C45.3334 24.9055 42.1705 20.9035 37.8672 19.591ZM27.0875 32.4578C28.0772 32.802 29.4112 33.5336 29.4112 35.8143C29.4112 37.7723 27.8836 39.343 25.9901 39.343H25.4522V39.8164C25.4522 40.4404 24.9573 40.9352 24.3334 40.9352C23.7094 40.9352 23.2145 40.4404 23.2145 39.8164V39.343H23.0209C20.9553 39.343 19.2555 37.6002 19.2555 35.4486C19.2555 34.8246 19.7504 34.3297 20.3744 34.3297C20.9983 34.3297 21.4932 34.8246 21.4932 35.4486C21.4932 36.3522 22.1817 37.1053 23.0209 37.1053H23.2145V33.469L21.5793 32.8881C20.5895 32.5438 19.2555 31.8123 19.2555 29.5315C19.2555 27.5736 20.7832 26.0029 22.6766 26.0029H23.2145V25.5295C23.2145 24.9055 23.7094 24.4106 24.3334 24.4106C24.9573 24.4106 25.4522 24.9055 25.4522 25.5295V26.0029H25.6459C27.7114 26.0029 29.4112 27.7457 29.4112 29.8973C29.4112 30.5213 28.9164 31.0162 28.2924 31.0162C27.6684 31.0162 27.1735 30.5213 27.1735 29.8973C27.1735 28.9936 26.485 28.2406 25.6459 28.2406H25.4522V31.8768L27.0875 32.4578Z" fill="#38B6FF"></path><path d="M21.493 29.532C21.493 30.4356 21.7512 30.5647 22.3107 30.7799L23.2144 31.1026V28.241H22.6764C22.0094 28.241 21.493 28.8219 21.493 29.532Z" fill="#38B6FF"></path></svg> 