<?xml version="1.0" encoding="UTF-8"?> <svg xmlns="http://www.w3.org/2000/svg" width="49" height="49" viewBox="0 0 49 49" fill="none"><path d="M11.7764 17.8703L31.5329 7.30659L24.6666 3.85059L4.29588 14.1046L11.7764 17.8703ZM37.5329 10.3268L17.7764 20.8906L24.6666 24.3593L45.0374 14.1046L37.5329 10.3268ZM24.1041 25.3418L17.1666 21.8498V29.5223L14.1666 26.5021H11.1666V18.8296L3.66663 15.0548V35.5628L24.1041 45.8506V25.3418ZM25.2291 25.3418V45.8506L45.6666 35.5628V15.0548L25.2291 25.3418Z" fill="#38B6FF"></path><path d="M11.6666 17.8506L31.6666 7.35059L37.6666 10.3506L17.6666 20.8506L17.1666 21.8506V29.3506L14.1666 26.3506H11.1666V18.8506L11.6666 17.8506Z" fill="#FFCB6C"></path></svg> 