<?xml version="1.0" encoding="UTF-8"?> <svg xmlns="http://www.w3.org/2000/svg" width="42" height="42" viewBox="0 0 42 42" fill="none"><g clip-path="url(#clip0_7829_62)"><path d="M0.911835 6.1582V30.6594H32.3566V6.1582H0.911835Z" fill="white"></path><path d="M0.911835 0.91333V6.16506H32.3566V0.91333H0.911835Z" fill="white"></path><path d="M13.1388 6.15814V0.91333H23.6181V6.15814V12.2471H13.1388V6.15814Z" fill="white"></path><path d="M32.3566 21.9064C32.0803 21.9064 31.7971 21.8372 31.4448 21.8372C26.4158 21.8372 22.2918 25.6843 21.8704 30.59C21.8704 30.8668 21.8013 31.1505 21.8013 31.4965C21.8013 36.8174 26.1326 41.1558 31.4448 41.1558C36.7569 41.1558 41.0882 36.8174 41.0882 31.4965C41.0882 26.4592 37.2474 22.3284 32.3566 21.9064Z" fill="#C2E3F7"></path><path d="M36.6878 29.746V33.2472H33.1924V36.7483H29.6971V33.2472H26.2017V29.746H29.6971V26.2449H33.1924V29.746H36.6878Z" fill="#C2E3F7"></path><path d="M17.4701 7.00239H0.911842C0.421382 7.00239 0 6.58031 0 6.08904C0 5.59777 0.421382 5.18262 0.911842 5.18262H17.5461C18.0365 5.18262 18.451 5.60469 18.451 6.08904C18.3819 6.58031 17.9605 7.00239 17.4701 7.00239Z" fill="#0C91DF"></path><path d="M32.3566 7.00239H23.625C23.1345 7.00239 22.7132 6.58031 22.7132 6.08904C22.7132 5.59777 23.1345 5.18262 23.625 5.18262H32.3566C32.847 5.18262 33.2684 5.60469 33.2684 6.08904C33.1993 6.58031 32.778 7.00239 32.3566 7.00239Z" fill="#0C91DF"></path><path d="M23.6181 13.1605H13.1388C12.6484 13.1605 12.227 12.7384 12.227 12.2471V0.913344C12.227 0.422076 12.6484 0 13.1388 0C13.6293 0 14.0438 0.422076 14.0438 0.913344V11.4099H22.7063V0.913344C22.7063 0.422076 23.1276 0 23.6181 0C24.1086 0 24.523 0.422076 24.523 0.913344V12.254C24.454 12.7453 24.0326 13.1674 23.6181 13.1674V13.1605Z" fill="#0C91DF"></path><path d="M12.227 21.9064H6.07895C5.58849 21.9064 5.17401 21.4844 5.17401 20.9931C5.17401 20.5018 5.59539 20.0867 6.07895 20.0867H12.227C12.7174 20.0867 13.1388 20.5087 13.1388 20.9931C13.1388 21.4774 12.7174 21.9064 12.227 21.9064Z" fill="#0C91DF"></path><path d="M14.8865 25.4077H6.15494C5.66448 25.4077 5.2431 24.9856 5.2431 24.5012C5.2431 24.0169 5.66448 23.5879 6.15494 23.5879H14.8865C15.377 23.5879 15.7984 24.01 15.7984 24.5012C15.7984 24.9925 15.3079 25.4077 14.8865 25.4077Z" fill="#0C91DF"></path><path d="M21.8704 31.4965H0.911842C0.421382 31.4965 0 31.0745 0 30.5901V0.913344C0 0.422076 0.421382 0 0.911842 0H32.3566C32.847 0 33.2684 0.422076 33.2684 0.913344V21.9825C33.2684 22.4738 32.847 22.889 32.3566 22.889C31.8661 22.889 31.4447 22.4669 31.4447 21.9825V1.75058H1.7477V29.746H21.8704C22.3609 29.746 22.7822 30.168 22.7822 30.6524C22.7822 31.1367 22.3609 31.4896 21.8704 31.4896V31.4965Z" fill="#0C91DF"></path><path d="M31.4447 42.0001C25.6421 42.0001 20.9655 37.3088 20.9655 31.5036C20.9655 31.2268 20.9655 30.8739 21.0345 30.521C21.2418 27.9332 22.4299 25.4838 24.3918 23.7332C26.3467 21.9826 28.8612 20.9309 31.4516 20.9309C31.7349 20.9309 32.0803 20.9309 32.4326 21.0001C35.0161 21.2077 37.4615 22.3978 39.2092 24.3629C40.9569 26.321 42.0069 28.8396 42.0069 31.4344C41.9378 37.3158 37.2543 42.0001 31.4516 42.0001H31.4447ZM31.4447 22.7507C26.8993 22.7507 23.1276 26.1826 22.7822 30.7286C22.7822 31.0054 22.7132 31.2891 22.7132 31.4966C22.7132 36.3263 26.623 40.2495 31.4447 40.2495C36.2664 40.2495 40.1832 36.3263 40.1832 31.4966C40.1832 26.9438 36.7569 23.1658 32.2184 22.8199C32.0112 22.7507 31.728 22.7507 31.4516 22.7507H31.4447Z" fill="#0C91DF"></path><path d="M33.1924 37.6548H29.6971C29.2066 37.6548 28.7852 37.2327 28.7852 36.7414V34.0844H26.2017C25.7112 34.0844 25.2967 33.6623 25.2967 33.1711V29.6699C25.2967 29.1787 25.7181 28.7566 26.2017 28.7566H28.8543V26.238C28.8543 25.7467 29.2757 25.3315 29.7592 25.3315H33.2546C33.7451 25.3315 34.1596 25.7536 34.1596 26.238V28.895H36.674C37.1645 28.895 37.5859 29.317 37.5859 29.8014V33.3025C37.5859 33.7938 37.1645 34.209 36.674 34.209H34.0214V36.7276C34.0905 37.2189 33.6691 37.6409 33.1855 37.6409L33.1924 37.6548ZM30.6089 35.9042H32.3566V33.2472C32.3566 32.7559 32.778 32.3338 33.2684 32.3338H35.9211V30.5833H33.1924C32.702 30.5833 32.2806 30.1612 32.2806 29.6699V27.0129H30.5329V29.746C30.5329 30.2373 30.1115 30.6525 29.6211 30.6525H26.9684V32.403H29.6971C30.1875 32.403 30.602 32.8251 30.602 33.3164V35.9042H30.6089Z" fill="#0C91DF"></path></g><defs><clipPath id="clip0_7829_62"><rect width="42" height="42" fill="white"></rect></clipPath></defs></svg> 