<?xml version="1.0" encoding="UTF-8"?> <svg xmlns="http://www.w3.org/2000/svg" width="54" height="38" viewBox="0 0 54 38" fill="none"><path d="M37.2572 8.57684L36.1117 13.7627L30.8934 12.6243L32.0389 7.43848L37.2572 8.57684Z" fill="#C2E3F7"></path><path d="M24.9539 5.94183L23.8084 11.1347L18.6608 9.99636L19.7355 4.87374V4.80347L24.9539 5.94183Z" fill="#C2E3F7"></path><path d="M45.0564 6.65145L42.4826 18.3091C41.7684 17.9507 40.9835 17.7399 40.1209 17.7399C39.6189 17.7399 39.1168 17.8102 38.6219 17.9507L30.1085 16.2432L30.8934 12.6876L36.1117 13.8259L37.2572 8.64007L32.0389 7.50171L32.8237 4.01636L45.0564 6.64442V6.65145Z" fill="#C2E3F7"></path><path d="M32.8237 3.95295L32.0389 7.4383L30.8934 12.6242L30.1014 16.25L17.8052 13.6923L18.6608 9.99609L23.8084 11.1345L24.9538 5.94157L19.7355 4.80321L20.5911 0.89624L32.8237 3.95295Z" fill="#C2E3F7"></path><path d="M47.1988 21.654L45.4099 22.3637C45.12 20.5859 43.9816 19.0962 42.4048 18.3092L44.9786 6.6515L45.5513 4.02344L50.7696 5.1618L47.1918 21.654H47.1988Z" fill="#C2E3F7"></path><path d="M30.1014 16.2502L38.6148 18.028C36.543 18.5972 34.9662 20.4453 34.7541 22.6517L17.586 18.8853L16.1577 13.3411L17.8052 13.6994L30.1085 16.2572L30.1014 16.2502Z" fill="white"></path><path d="M42.7654 22.7218V23.0802C42.7654 24.5699 41.5492 25.7785 40.0502 25.7785C38.5512 25.7785 37.335 24.5699 37.335 23.0802V22.7991C37.4057 21.6608 38.1905 20.8105 39.2653 20.5224C39.4774 20.4521 39.7673 20.4521 39.9795 20.4521C40.4108 20.4521 40.7643 20.5224 41.125 20.7332C42.0583 21.0916 42.624 21.8716 42.7725 22.7218H42.7654Z" fill="#C2E3F7"></path><path d="M45.4099 22.3635C45.4099 22.5743 45.4806 22.8624 45.4806 23.1435C45.4806 26.0597 43.0482 28.4769 40.1138 28.4769C37.1794 28.4769 34.747 26.0597 34.747 23.1435V22.6446C34.9591 20.4381 36.5359 18.59 38.6077 18.0209C39.1097 17.8803 39.5411 17.8101 40.1067 17.8101C40.9623 17.8101 41.7543 18.0209 42.4684 18.3792C44.0452 19.089 45.1836 20.5857 45.4028 22.3635H45.4099ZM42.8361 23.1435V22.7851C42.6947 21.8646 42.1219 21.1478 41.3371 20.7965C40.9765 20.656 40.6229 20.5154 40.1916 20.5154C39.9088 20.5154 39.6896 20.5857 39.4774 20.5857C38.4027 20.8668 37.6178 21.7943 37.5471 22.8624V23.1435C37.5471 24.6332 38.7633 25.8418 40.2623 25.8418C41.6199 25.7716 42.8361 24.5629 42.8361 23.1435Z" fill="#C2E3F7"></path><path d="M19.7356 5.66066H19.5234C19.0214 5.59039 18.7386 5.09148 18.8093 4.59257L19.6648 0.685606C19.7356 0.474798 19.877 0.256964 20.0962 0.116426C20.3083 -0.0241126 20.5275 -0.0241126 20.8103 0.0461566L33.043 3.10286C33.545 3.2434 33.8278 3.67204 33.6864 4.17096C33.545 4.66987 33.1137 4.95094 32.6116 4.8104L21.3124 1.9645L20.6689 4.95094C20.5275 5.37959 20.1669 5.66066 19.7426 5.66066H19.7356Z" fill="#0C91DF"></path><path d="M30.1015 17.1004H29.8893L17.586 14.5426C17.084 14.4724 16.8011 13.9734 16.8718 13.4745L18.7315 4.66278C18.8022 4.16387 19.3042 3.88279 19.8062 3.95306C20.3083 4.02333 20.5911 4.52224 20.5204 5.02115L18.8022 12.9826L30.1722 15.3296C30.6742 15.3999 30.957 15.8988 30.8863 16.3977C30.8863 16.8264 30.5257 17.1074 30.1015 17.1074V17.1004Z" fill="#0C91DF"></path><path d="M23.8084 12.0551H23.5963L18.3779 10.9167C17.8759 10.7762 17.5931 10.3476 17.7345 9.84864L18.88 4.66278C18.9507 4.16387 19.4527 3.88279 19.9547 3.95306L25.1731 5.09142C25.6751 5.16169 25.9579 5.6606 25.8872 6.15951L24.7417 11.3454C24.671 11.5562 24.5296 11.774 24.3811 11.9146C24.169 11.9848 24.0205 12.0551 23.8084 12.0551ZM19.6648 9.28649L23.172 10.0665L23.9569 6.58113L20.4497 5.80114L19.6648 9.28649Z" fill="#0C91DF"></path><path d="M36.1117 14.6831H35.8996L30.6813 13.5447C30.4691 13.4744 30.3206 13.4042 30.1792 13.2636C30.0378 13.0528 29.9671 12.7647 30.0378 12.4837L31.1833 7.29779C31.254 6.79888 31.756 6.5178 32.2581 6.58807L37.4764 7.72643C37.6885 7.7967 37.9077 7.93724 38.0491 8.0848C38.1905 8.29561 38.1905 8.51344 38.1905 8.72425L37.0451 13.9101C36.9036 14.409 36.543 14.6901 36.1117 14.6901V14.6831ZM31.9682 11.9847L35.4753 12.7647L36.2602 9.27938L32.753 8.49939L31.9682 11.9847Z" fill="#0C91DF"></path><path d="M34.7541 23.5019H34.542L17.3739 19.7355C17.0133 19.6652 16.8011 19.4544 16.7304 19.0961L15.2314 13.5518C15.1607 13.2708 15.2314 12.9124 15.4435 12.7016C15.6557 12.4908 15.9456 12.3432 16.2991 12.4205L38.7563 17.0442C39.2583 17.1145 39.5411 17.6134 39.4704 18.1123C39.3997 18.6112 38.8977 18.8923 38.3956 18.822L17.2961 14.4864L18.2224 18.1123L34.8178 21.7382C35.3198 21.8085 35.6026 22.3074 35.5319 22.8063C35.5319 23.2349 35.1713 23.516 34.7471 23.516L34.7541 23.5019Z" fill="#0C91DF"></path><path d="M40.1209 29.3273C36.6845 29.3273 33.8278 26.5517 33.8278 23.0733V22.5042C34.0399 19.9464 35.8996 17.8102 38.332 17.1005C38.9047 16.9599 39.4775 16.8896 40.0502 16.8896C40.9765 16.8896 41.9098 17.1005 42.7654 17.5291C44.6251 18.4567 45.912 20.2274 46.2019 22.2231C46.2726 22.5042 46.2726 22.7923 46.2726 23.0733C46.414 26.5587 43.5574 29.3273 40.1209 29.3273ZM40.1209 18.6675C39.6896 18.6675 39.2653 18.7377 38.9047 18.808C37.1158 19.3069 35.8289 20.8669 35.6875 22.6447V23.0733C35.6875 25.4906 37.6885 27.5495 40.1916 27.5495C42.6947 27.5495 44.6958 25.5609 44.6958 23.0733C44.6958 22.8625 44.6958 22.6447 44.6251 22.4339C44.4129 20.9442 43.4796 19.7355 42.122 19.0961C41.4785 18.815 40.8351 18.6675 40.1209 18.6675Z" fill="#0C91DF"></path><path d="M40.1209 26.6994C38.1198 26.6994 36.543 25.1324 36.543 23.1438V22.7854C36.6844 21.3659 37.6885 20.087 39.1168 19.7287C39.3997 19.6584 39.7603 19.5881 40.1209 19.5881C40.6936 19.5881 41.1957 19.7287 41.6977 19.9465C42.7725 20.4454 43.4866 21.4362 43.6988 22.6448V23.1438C43.6988 25.0621 42.122 26.6994 40.1209 26.6994ZM40.1209 21.3659C39.9795 21.3659 39.7603 21.3659 39.6189 21.4362C38.9047 21.647 38.4027 22.2162 38.332 23.0032V23.1438C38.332 24.1416 39.1168 24.9216 40.1209 24.9216C41.125 24.9216 41.9098 24.1416 41.9098 23.1438V22.9329C41.8391 22.3638 41.4785 21.8649 40.9058 21.5838C40.6936 21.373 40.4037 21.373 40.1209 21.373V21.3659Z" fill="#0C91DF"></path><path d="M45.4099 23.2139C45.0493 23.2139 44.6958 23.0031 44.5544 22.6448C44.3422 22.2161 44.6251 21.6469 45.0564 21.5064L46.414 21.0075L49.7727 5.86449L46.2655 5.0845L45.9049 6.79204C45.8342 7.29095 45.3322 7.57203 44.8301 7.50176C44.3281 7.43149 44.0453 6.93258 44.116 6.43367L44.6887 3.8056C44.7594 3.30669 45.2615 3.02561 45.7635 3.09588L50.9818 4.23424C51.1939 4.30451 51.4131 4.44505 51.5545 4.59262C51.696 4.80342 51.696 5.02126 51.696 5.23207L48.0474 21.8648C47.9767 22.1459 47.7645 22.3637 47.4746 22.5042L45.6857 23.2139H45.4029H45.4099Z" fill="#0C91DF"></path><path d="M42.4826 19.2366H42.2705C41.7684 19.1664 41.4856 18.6674 41.5563 18.1685L43.918 7.36114L33.4036 5.08442L31.1126 15.6037L38.7633 17.1707C39.2653 17.241 39.5482 17.7399 39.4775 18.2388C39.4067 18.7377 38.9047 19.0188 38.4027 18.9485L29.8893 17.1707C29.458 17.1004 29.1752 16.7421 29.1752 16.3205V16.1096L31.8904 3.88281C31.9611 3.67201 32.1025 3.45417 32.251 3.31363C32.3924 3.1731 32.6823 3.1731 32.8945 3.1731L45.1271 5.80116C45.6291 5.87143 45.912 6.37034 45.8412 6.86925L43.2674 18.5269C43.2674 18.9555 42.9068 19.2366 42.4826 19.2366Z" fill="#0C91DF"></path><path d="M51.0596 30.2549H9.93532C9.43329 30.2549 9.00903 29.8262 9.00903 29.3343C9.00903 28.8425 9.44036 28.4138 9.93532 28.4138H51.0667C51.5687 28.4138 52 28.8425 52 29.3343C51.9293 29.8333 51.498 30.2549 51.0667 30.2549H51.0596Z" fill="#0C91DF"></path><path d="M9.86458 15.1121C9.43326 15.1121 9.07971 14.7537 9.00901 14.3321C8.9383 13.8332 9.29184 13.4045 9.79387 13.3343L16.087 12.4137C16.589 12.3435 17.0133 12.6948 17.091 13.1937C17.1617 13.6926 16.8082 14.1142 16.3062 14.1915L10.0131 15.1121H9.87165H9.86458Z" fill="#0C91DF"></path></svg> 