<?xml version="1.0" encoding="UTF-8"?> <svg xmlns="http://www.w3.org/2000/svg" width="366" height="370" viewBox="0 0 366 370" fill="none"><g clip-path="url(#clip0_2510_21966)"><rect x="61" y="75" width="249" height="223" fill="white"></rect><path fill-rule="evenodd" clip-rule="evenodd" d="M361 107C361 53.984 318.016 11 265 11H105C51.984 11 9 53.984 9 107V267C9 320.016 51.984 363 105 363H265C318.016 363 361 320.016 361 267V107ZM164.848 96.936C166.389 92.8362 169.143 89.3038 172.744 86.8104C176.345 84.317 180.62 82.9811 185 82.9811C189.38 82.9811 193.655 84.317 197.256 86.8104C200.857 89.3038 203.611 92.8362 205.152 96.936L221.68 140.776C222.504 142.952 223.78 144.929 225.426 146.574C227.071 148.22 229.048 149.496 231.224 150.32L275.064 166.848C279.164 168.389 282.696 171.143 285.19 174.744C287.683 178.345 289.019 182.62 289.019 187C289.019 191.38 287.683 195.655 285.19 199.256C282.696 202.857 279.164 205.611 275.064 207.152L231.224 223.68C229.048 224.504 227.071 225.78 225.426 227.426C223.78 229.071 222.504 231.048 221.68 233.224L205.152 277.064C203.611 281.164 200.857 284.696 197.256 287.19C193.655 289.683 189.38 291.019 185 291.019C180.62 291.019 176.345 289.683 172.744 287.19C169.143 284.696 166.389 281.164 164.848 277.064L148.32 233.224C147.496 231.048 146.22 229.071 144.574 227.426C142.929 225.78 140.952 224.504 138.776 223.68L94.936 207.152C90.8362 205.611 87.3038 202.857 84.8104 199.256C82.317 195.655 80.9811 191.38 80.9811 187C80.9811 182.62 82.317 178.345 84.8104 174.744C87.3038 171.143 90.8362 168.389 94.936 166.848L138.776 150.32C140.952 149.496 142.929 148.22 144.574 146.574C146.22 144.929 147.496 142.952 148.32 140.776L164.848 96.936Z" fill="url(#paint0_linear_2510_21966)"></path></g><defs><linearGradient id="paint0_linear_2510_21966" x1="-71" y1="187" x2="441" y2="187" gradientUnits="userSpaceOnUse"><stop stop-color="#6D62A5"></stop><stop offset="0.504147" stop-color="#4E79C8"></stop><stop offset="1" stop-color="#3E82CD"></stop></linearGradient><clipPath id="clip0_2510_21966"><rect width="366" height="370" fill="white"></rect></clipPath></defs></svg> 