<?xml version="1.0" encoding="UTF-8"?> <svg xmlns="http://www.w3.org/2000/svg" width="24" height="24" viewBox="0 0 24 24" fill="none"><g id="icon/AI Generate A filled"><g id="Vector"><path d="M6 23C5.44771 23 5 22.5523 5 22C5 21.4477 5.44771 21 6 21C6.55228 21 7 21.4477 7 22C7 22.5523 6.55228 23 6 23Z" fill="white"></path><path d="M18 3C17.4477 3 17 2.55228 17 2C17 1.44772 17.4477 1 18 1C18.5523 1 19 1.44772 19 2C19 2.55228 18.5523 3 18 3Z" fill="white"></path><path d="M22 7C21.4477 7 21 6.55228 21 6C21 5.44771 21.4477 5 22 5C22.5523 5 23 5.44771 23 6C23 6.55228 22.5523 7 22 7Z" fill="white"></path><path d="M10.6948 5.02656C11.0267 3.65781 12.9733 3.65781 13.3052 5.02656L14.2185 8.79277C14.337 9.28146 14.7185 9.66301 15.2072 9.78151L18.9734 10.6948C20.3422 11.0267 20.3422 12.9733 18.9734 13.3052L15.2072 14.2185C14.7185 14.337 14.337 14.7185 14.2185 15.2072L13.3052 18.9734C12.9733 20.3422 11.0267 20.3422 10.6948 18.9734L9.78151 15.2072C9.66301 14.7185 9.28146 14.337 8.79277 14.2185L5.02656 13.3052C3.65781 12.9733 3.65781 11.0267 5.02656 10.6948L8.79277 9.78151C9.28146 9.66301 9.66301 9.28146 9.78151 8.79277L10.6948 5.02656Z" fill="white"></path><path fill-rule="evenodd" clip-rule="evenodd" d="M22.3147 14.9953C22.7804 15.1692 23.017 15.6876 22.8432 16.1532C21.7173 19.1697 19.3801 21.5926 16.4228 22.8302C15.9643 23.0221 15.4371 22.806 15.2452 22.3474C15.0533 21.8889 15.2694 21.3617 15.728 21.1698C18.2274 20.1238 20.2052 18.0734 21.1568 15.5238C21.3306 15.0581 21.849 14.8215 22.3147 14.9953Z" fill="white"></path><path fill-rule="evenodd" clip-rule="evenodd" d="M9.02077 1.68464C9.19494 2.15018 8.95874 2.66877 8.4932 2.84294C5.92955 3.80206 3.87073 5.8029 2.83251 8.33064C2.64367 8.79043 2.11785 9.01007 1.65806 8.82122C1.19828 8.63237 0.97864 8.10655 1.16749 7.64677C2.39534 4.6573 4.82798 2.29233 7.86247 1.15706C8.32801 0.982891 8.8466 1.2191 9.02077 1.68464Z" fill="white"></path><path d="M2 19C1.44772 19 1 18.5523 1 18C1 17.4477 1.44772 17 2 17C2.55228 17 3 17.4477 3 18C3 18.5523 2.55228 19 2 19Z" fill="white"></path></g></g></svg> 