<?xml version="1.0" encoding="UTF-8"?> <svg xmlns="http://www.w3.org/2000/svg" width="298" height="288" viewBox="0 0 298 288" fill="none"><g clip-path="url(#clip0_2510_21966)"><rect x="27" y="39" width="249" height="223" fill="white"></rect><path fill-rule="evenodd" clip-rule="evenodd" d="M298.875 75.875C298.875 30.7286 262.271 -5.875 217.125 -5.875H80.875C35.7286 -5.875 -0.875 30.7286 -0.875 75.875V212.125C-0.875 257.271 35.7286 293.875 80.875 293.875H217.125C262.271 293.875 298.875 257.271 298.875 212.125V75.875ZM131.839 67.3049C133.151 63.8136 135.497 60.8056 138.563 58.6823C141.629 56.559 145.27 55.4214 149 55.4214C152.73 55.4214 156.371 56.559 159.437 58.6823C162.503 60.8056 164.849 63.8136 166.161 67.3049L180.235 104.637C180.937 106.491 182.024 108.174 183.425 109.575C184.826 110.976 186.509 112.063 188.363 112.765L225.695 126.839C229.186 128.151 232.194 130.497 234.318 133.563C236.441 136.629 237.579 140.27 237.579 144C237.579 147.73 236.441 151.371 234.318 154.437C232.194 157.503 229.186 159.849 225.695 161.161L188.363 175.235C186.509 175.937 184.826 177.024 183.425 178.425C182.024 179.826 180.937 181.509 180.235 183.363L166.161 220.695C164.849 224.186 162.503 227.194 159.437 229.318C156.371 231.441 152.73 232.579 149 232.579C145.27 232.579 141.629 231.441 138.563 229.318C135.497 227.194 133.151 224.186 131.839 220.695L117.765 183.363C117.063 181.509 115.976 179.826 114.575 178.425C113.174 177.024 111.491 175.937 109.637 175.235L72.3049 161.161C68.8136 159.849 65.8056 157.503 63.6823 154.437C61.559 151.371 60.4214 147.73 60.4214 144C60.4214 140.27 61.559 136.629 63.6823 133.563C65.8056 130.497 68.8136 128.151 72.3049 126.839L109.637 112.765C111.491 112.063 113.174 110.976 114.575 109.575C115.976 108.174 117.063 106.491 117.765 104.637L131.839 67.3049Z" fill="url(#paint0_linear_2510_21966)"></path></g><defs><linearGradient id="paint0_linear_2510_21966" x1="5.12" y1="151.267" x2="285.129" y2="146.907" gradientUnits="userSpaceOnUse"><stop stop-color="#6D62A5"></stop><stop offset="0.504147" stop-color="#4E79C8"></stop><stop offset="1" stop-color="#3E82CD"></stop></linearGradient><clipPath id="clip0_2510_21966"><rect width="298" height="288" rx="144" fill="white"></rect></clipPath></defs></svg> 