<?xml version="1.0" encoding="UTF-8"?> <svg xmlns="http://www.w3.org/2000/svg" width="24" height="24" viewBox="0 0 24 24" fill="none"><circle cx="12" cy="12" r="8" fill="white"></circle><path fill-rule="evenodd" clip-rule="evenodd" d="M12 20C16.4183 20 20 16.4183 20 12C20 7.58172 16.4183 4 12 4C7.58172 4 4 7.58172 4 12C4 16.4183 7.58172 20 12 20ZM15.6736 9.96839C15.8771 9.70682 15.8299 9.32986 15.5684 9.12642C15.3068 8.92297 14.9298 8.9701 14.7264 9.23166L11.5208 13.3532C11.4495 13.4448 11.3154 13.4567 11.2291 13.379L9.20138 11.5541C8.95508 11.3324 8.5757 11.3523 8.35403 11.5986C8.13235 11.845 8.15232 12.2243 8.39863 12.446L10.4264 14.271C11.0305 14.8147 11.969 14.7314 12.468 14.0899L15.6736 9.96839Z" fill="#38B6FF"></path></svg> 