<?xml version="1.0" standalone="no"?>
<!DOCTYPE svg PUBLIC "-//W3C//DTD SVG 20010904//EN"
        "http://www.w3.org/TR/2001/REC-SVG-20010904/DTD/svg10.dtd">
<svg version="1.0" xmlns="http://www.w3.org/2000/svg"
     width="500.000000pt" height="499.000000pt" viewBox="0 0 500.000000 499.000000"
     preserveAspectRatio="xMidYMid meet">

    <g transform="translate(0.000000,499.000000) scale(0.100000,-0.100000)"
       fill="#6477ff" stroke="none">
        <path d="M1800 4575 c-377 -217 -859 -495 -1072 -618 l-387 -222 2 -1248 2
-1248 860 -496 c473 -272 957 -551 1076 -620 l216 -124 309 177 c170 98 579
333 909 524 330 190 678 391 773 445 l172 100 0 1242 0 1242 -67 40 c-38 22
-378 218 -758 437 -379 218 -833 479 -1009 580 -175 101 -323 184 -330 184 -6
0 -319 -178 -696 -395z m1390 -1073 c33 -16 161 -138 452 -430 460 -460 465
-467 456 -586 -3 -35 -15 -79 -26 -101 -32 -59 -827 -858 -877 -880 -123 -56
-276 -2 -334 118 -30 62 -29 169 2 225 12 23 158 180 324 350 l301 309 -209
209 c-180 179 -212 207 -222 193 -111 -144 -921 -1254 -945 -1294 -36 -60 -92
-107 -149 -126 -45 -15 -138 -8 -183 14 -51 25 -852 831 -879 884 -33 65 -30
173 7 235 41 70 822 854 875 878 50 23 152 26 201 6 47 -19 104 -73 129 -120
29 -56 31 -173 3 -231 -12 -25 -136 -157 -324 -347 l-304 -306 200 -204 c110
-112 202 -201 204 -198 3 3 227 308 499 679 272 370 499 679 505 687 6 7 31
25 55 39 39 23 53 25 119 22 51 -2 89 -10 120 -25z"/>
    </g>
</svg>
